<?xml version="1.0" encoding="utf-8"?>
<!-- Generator: Adobe Illustrator 26.0.2, SVG Export Plug-In . SVG Version: 6.00 Build 0)  -->
<svg version="1.1" id="Calque_1" xmlns="http://www.w3.org/2000/svg" xmlns:xlink="http://www.w3.org/1999/xlink" x="0px" y="0px"
	 viewBox="0 0 95 105" style="enable-background:new 0 0 95 105;" xml:space="preserve">
<style type="text/css">
	.st0{fill:#FFFFFF;}
	.st1{fill:#07162F;}
</style>
<path class="st0" d="M0,0v78.3L47.5,105L95,78.3V0H0z"/>
<path class="st1" d="M42.3,64.7c0,2.1,0,8.2,0,8.8h13c0-0.3,0-1.2,0-2.6c0-2.6,0-6.6,0-8.9c0-2.3-0.8-3.9-1.8-4.7
	c5.8-0.6,11.9-2.7,11.9-12.4c0-2.7-1-5-2.7-6.7c0.3-0.6,1.2-3.2-0.3-6.7c0,0-2.2-0.7-7.2,2.6c-2.1-0.6-4.3-0.8-6.5-0.8
	c-2.2,0-4.5,0.3-6.5,0.8c-5-3.3-7.2-2.6-7.2-2.6c-1.4,3.5-0.5,6-0.3,6.7c-1.7,1.8-2.7,4-2.7,6.7c0,9.6,6.1,11.8,11.9,12.4
	c-0.7,0.6-1.4,1.7-1.7,3.4c-1.5,0.6-5.3,1.8-7.6-2.1c0,0-1.4-2.4-4-2.6c0,0-2.6,0-0.2,1.5c0,0,1.7,0.8,2.9,3.7
	C33.4,61.3,35,66.2,42.3,64.7z"/>
</svg>
