<svg enable-background="new 0 0 2980.5 442" viewBox="0 0 2980.5 442" xmlns="http://www.w3.org/2000/svg"><path clip-rule="evenodd" d="m2950.5 0v330.9l-176.2 110.8 13.3-119-131.2 22.7 46.8-136.8 31.1-90.7 17.1 65.1-48.1 25.6 80.6 109.3c2.4 3 5.8 5 9.6 5.7l63.2 9c2 .3 3.8-.3 5.5-1.7l13.3-12.3-12-22 34.2 3.3-66.6-63.7-2.1-27c-.3-2.7-1.1-5.3-2.4-7.6l-15.7-25c-1.6-3-2.2-6.3-1.7-9.7l8.9-46.7-56.7 24.3-21.9-43.1-139.4 147.1v-221.8l-2600.1 197.6v217.7h2980.5v-442zm-163.6 214.8c.7 0 1.3.2 1.9.5s1.1.7 1.5 1.3l11.5 13.5-14.4 5.5c-.6.2-1.3.2-1.9.1s-1.2-.4-1.8-.7l-30.7-21.4z" fill="#fff" fill-rule="evenodd"/></svg>