<?xml version="1.0" encoding="utf-8"?>
<!-- Generator: Adobe Illustrator 26.0.2, SVG Export Plug-In . SVG Version: 6.00 Build 0)  -->
<svg version="1.1" id="Calque_1" xmlns="http://www.w3.org/2000/svg" xmlns:xlink="http://www.w3.org/1999/xlink" x="0px" y="0px"
	 viewBox="0 0 4042 448.9" style="enable-background:new 0 0 4042 448.9;" xml:space="preserve">
<style type="text/css">
	.st0{fill-rule:evenodd;clip-rule:evenodd;fill:#FFFFFF;}
</style>
<path class="st0" d="M3947.4,7.1v330.8l-176.2,110.7l13.3-119l-131.1,22.7l46.8-136.7l31.1-90.7l17.1,65.1l-48.1,25.6l80.6,109.3
	c2.4,3,5.8,5,9.6,5.7l63.2,9c2,0.3,3.8-0.3,5.5-1.7l13.3-12.3l-12-22l34.2,3.3l-66.7-63.7l-2.1-27c-0.3-2.7-1.1-5.3-2.4-7.6
	l-15.7-25c-1.6-3-2.2-6.3-1.7-9.7l8.9-46.7l-56.7,24.3l-21.9-43.1l-139.3,147V33.8L0,307.2v141.7h4042V0L3947.4,7.1z M3783.8,221.8
	c0.7,0,1.3,0.2,1.9,0.5c0.6,0.3,1.1,0.7,1.5,1.3l11.5,13.5l-14.4,5.5c-0.6,0.2-1.3,0.2-1.9,0.1c-0.6-0.1-1.2-0.4-1.8-0.7l-30.6-21.4
	L3783.8,221.8z"/>
</svg>
