<svg width="51" height="44" viewBox="0 0 51 44" fill="none" xmlns="http://www.w3.org/2000/svg">
<path d="M21.2218 0L0 39.765H25.1467V37.4296H3.8634L21.2218 4.91224L32.4971 26.0403L34.5248 24.9271L21.2218 0Z" fill="#99B7D1"/>
<path d="M18.5949 33.8719L26.483 24.5145H20.3153L24.8393 19.4466L23.1265 17.8818L15.1309 26.85H21.4828L16.8437 32.3539L18.5949 33.8719Z" fill="#99B7D1"/>
<path d="M50.3621 34.7127C49.3758 33.3629 48.2478 32.1256 46.998 31.0226C45.868 30.0106 44.6163 29.1475 43.2728 28.4536C41.7844 27.6461 40.1222 27.2236 38.434 27.2236C36.7457 27.2236 35.0835 27.6461 33.5951 28.4536C31.6872 29.4521 29.9582 30.7678 28.4798 32.3461C27.7661 33.0744 27.1063 33.855 26.5058 34.6815L25.876 35.5846L26.5058 36.4876C27.4976 37.8329 28.6279 39.0672 29.8776 40.1698C31.0045 41.1843 32.2536 42.0502 33.5951 42.7467C35.0835 43.5542 36.7457 43.9767 38.434 43.9767C40.1222 43.9767 41.7844 43.5542 43.2728 42.7467C45.179 41.7456 46.9077 40.4302 48.3882 38.8542C49.0996 38.1238 49.7592 37.3434 50.3621 36.5188L50.9919 35.6157L50.3621 34.7127ZM44.8935 37.9356C43.9702 38.752 42.9512 39.4502 41.8596 40.0142C40.798 40.5662 39.6268 40.867 38.434 40.8939C37.2227 40.8672 36.0342 40.5554 34.9623 39.983C33.3679 39.1302 31.9226 38.0177 30.6841 36.69C30.3001 36.293 29.9775 35.9115 29.7163 35.6157C30.4105 34.7787 31.1681 33.9978 31.9822 33.2802C32.9008 32.4577 33.9206 31.7591 35.016 31.2017C36.0745 30.6102 37.2636 30.2999 38.4724 30.2999C39.6811 30.2999 40.8702 30.6102 41.9287 31.2017C43.5276 32.0473 44.974 33.1606 46.2069 34.4947C46.5909 34.8917 46.9135 35.2732 47.1746 35.569C46.4711 36.4122 45.7088 37.2031 44.8935 37.9356Z" fill="#EB5050"/>
<path d="M38.4348 32.4551C37.818 32.4551 37.2151 32.6405 36.7023 32.9878C36.1895 33.3351 35.7898 33.8286 35.5538 34.4062C35.3178 34.9837 35.256 35.6192 35.3763 36.2323C35.4966 36.8454 35.7937 37.4086 36.2298 37.8506C36.6659 38.2927 37.2215 38.5937 37.8264 38.7156C38.4313 38.8376 39.0583 38.775 39.6281 38.5358C40.1979 38.2966 40.685 37.8914 41.0276 37.3717C41.3703 36.8519 41.5532 36.2408 41.5532 35.6157C41.5511 34.7781 41.2219 33.9754 40.6376 33.3831C40.0532 32.7908 39.2612 32.4571 38.4348 32.4551ZM38.4348 35.6624L38.3887 35.6157L38.4348 35.569L38.4809 35.6157L38.4348 35.6624Z" fill="#EB5050"/>
</svg>
