<svg id="Calque_1" data-name="Calque 1" xmlns="http://www.w3.org/2000/svg" viewBox="0 0 200 80"><defs><style>.cls-1,.cls-2{fill:#eb5050;}.cls-1{fill-rule:evenodd;}</style></defs><path class="cls-1" d="M65,27.64a17.82,17.82,0,0,1-1.68,19.87H53.66l3-5.21H52.71l4.62-8.1h3.94L65,27.65ZM46,47.51H36.14a17.6,17.6,0,0,1-1.7-19.91l6.37,11,7-12.15H58.16L46,47.5Z"/><path class="cls-2" d="M73.08,38.16C73.08,32.62,76,30,80.69,30s7.61,2.67,7.61,8.21-2.9,8.18-7.61,8.18S73.08,43.65,73.08,38.16Zm1.71,0c0,4.56,2.17,6.73,5.9,6.73s5.9-2.17,5.9-6.73-2.17-6.76-5.9-6.76S74.79,33.58,74.79,38.16Z"/><path class="cls-2" d="M100.76,30.48a.81.81,0,0,1,.3-.38.8.8,0,0,1,.47-.15.81.81,0,0,1,.31.06.8.8,0,0,1,.27.18.78.78,0,0,1,.17.26.85.85,0,0,1,.06.31,1.15,1.15,0,0,1-.07.36l-5.6,14.66a.82.82,0,0,1-.77.56.81.81,0,0,1-.47-.16.77.77,0,0,1-.29-.4l-5.6-14.66a1.15,1.15,0,0,1-.07-.36.85.85,0,0,1,.06-.31.78.78,0,0,1,.17-.26A.8.8,0,0,1,90,30a.81.81,0,0,1,.31-.06.75.75,0,0,1,.46.15.77.77,0,0,1,.31.38L95.9,43.26Z"/><path class="cls-2" d="M106.33,38.67v6.78a.91.91,0,0,1,0,.33.81.81,0,0,1-.17.28.77.77,0,0,1-.28.19.79.79,0,0,1-.65,0,.77.77,0,0,1-.28-.19.68.68,0,0,1-.17-.28.74.74,0,0,1,0-.33V30.81a.7.7,0,0,1,0-.32.68.68,0,0,1,.17-.28.77.77,0,0,1,.28-.19.71.71,0,0,1,.32-.07.72.72,0,0,1,.33.07.77.77,0,0,1,.28.19.81.81,0,0,1,.17.28.86.86,0,0,1,0,.32v6.4h8.41V30.83a.69.69,0,0,1,0-.32.75.75,0,0,1,.18-.28.74.74,0,0,1,.27-.19.75.75,0,0,1,.33-.07.78.78,0,0,1,.33.07.74.74,0,0,1,.27.19.75.75,0,0,1,.18.28.85.85,0,0,1,0,.32V45.47a.93.93,0,0,1,0,.33.84.84,0,0,1-.18.28.88.88,0,0,1-.27.19,1,1,0,0,1-.33.07.93.93,0,0,1-.33-.07.88.88,0,0,1-.27-.19.84.84,0,0,1-.18-.28.75.75,0,0,1,0-.33v-6.8Z"/><path class="cls-2" d="M123.94,34.64a5,5,0,0,1,2.16.39,4.8,4.8,0,0,1,1.74,1.28.71.71,0,0,1,.17.46.5.5,0,0,1,0,.27.53.53,0,0,1-.16.23.61.61,0,0,1-.24.15.54.54,0,0,1-.28,0,.67.67,0,0,1-.34-.07.73.73,0,0,1-.27-.22,3.28,3.28,0,0,0-2.73-1.12c-2.33,0-3.57,1.43-3.57,4.42s1.24,4.44,3.57,4.44a4.62,4.62,0,0,0,2.93-1,.78.78,0,0,1,.48-.17.76.76,0,0,1,.52.21.68.68,0,0,1,.22.5,1,1,0,0,1-.09.34.85.85,0,0,1-.24.26,5.85,5.85,0,0,1-3.82,1.31c-3.27,0-5.22-1.87-5.22-5.85S120.67,34.64,123.94,34.64Z"/><path class="cls-2" d="M132.07,29.56V43.49c0,1,.34,1.38,1,1.38a.71.71,0,0,1,.32,0,.72.72,0,0,1,.27.15.64.64,0,0,1,.18.25.73.73,0,0,1,.07.29.82.82,0,0,1-.07.3.69.69,0,0,1-.18.24.72.72,0,0,1-.27.15.71.71,0,0,1-.32,0c-1.72,0-2.67-1-2.67-2.85V29.56a.77.77,0,0,1,.24-.55.93.93,0,0,1,.58-.23.82.82,0,0,1,.58.23A.76.76,0,0,1,132.07,29.56Z"/><path class="cls-2" d="M144.47,40.47c0,4-1.79,5.87-4.68,5.87s-4.68-1.88-4.68-5.87,1.8-5.84,4.68-5.84S144.47,36.48,144.47,40.47Zm-1.45,0c0-3.06-1.18-4.43-3.23-4.43s-3.23,1.38-3.23,4.43,1.18,4.45,3.23,4.45S143,43.58,143,40.47Z"/><path class="cls-2" d="M148.42,35.42v6.43c0,1.6.53,3,3.07,3s3.07-1.39,3.07-3V35.42a.77.77,0,0,1,.06-.3.83.83,0,0,1,.19-.26.78.78,0,0,1,.26-.17.87.87,0,0,1,.32-.06.78.78,0,0,1,.3.07.73.73,0,0,1,.26.17.85.85,0,0,1,.17.25,1,1,0,0,1,0,.3v6.43c0,2.32-.78,4.49-4.68,4.49s-4.68-2.15-4.68-4.49V35.42a.77.77,0,0,1,.06-.3.78.78,0,0,1,.17-.26,1.06,1.06,0,0,1,.26-.17.85.85,0,0,1,.31-.06.8.8,0,0,1,.57.24A.76.76,0,0,1,148.42,35.42Z"/><path class="cls-2" d="M166.38,36.26v-6.7a.78.78,0,0,1,.22-.55.71.71,0,0,1,1.05,0,.78.78,0,0,1,.22.55v12c0,3.19-1.91,4.77-4.57,4.77-3,0-4.79-1.87-4.79-5.83s1.69-5.81,4.69-5.81a3.89,3.89,0,0,1,1.77.4A3.94,3.94,0,0,1,166.38,36.26Zm0,2a3.55,3.55,0,0,0-3.08-2.13c-2.2,0-3.29,1.43-3.29,4.4s1.14,4.42,3.29,4.42c1.79,0,3.08-1.06,3.08-3.36Z"/></svg>