<svg id="Calque_1" data-name="Calque 1" xmlns="http://www.w3.org/2000/svg" viewBox="0 0 200 80"><defs><style>.cls-1{fill:#eb5050;}</style></defs><path class="cls-1" d="M27.17,29.85h1.09l3.08-3.08.15-1.31a13.86,13.86,0,0,0-19.55,1.22,13.71,13.71,0,0,0-3,5.54A1.67,1.67,0,0,1,10,32.16l6.16-1s.31-.52.48-.49a7.69,7.69,0,0,1,10.52-.8Z"/><path class="cls-1" d="M35.73,32.22a13.89,13.89,0,0,0-4.18-6.75L27.22,29.8A7.66,7.66,0,0,1,30,35.9v.76a3.85,3.85,0,0,1,0,7.7h-7.7l-.76.78v4.62l.76.77H30a10,10,0,0,0,5.69-18.31Z"/><path class="cls-1" d="M14.63,50.48h7.7V44.32h-7.7A3.8,3.8,0,0,1,13,44L12,44.31l-3.1,3.08-.27,1.08A10,10,0,0,0,14.63,50.48Z"/><path class="cls-1" d="M14.63,30.49a10,10,0,0,0-6,18L13.06,44a3.84,3.84,0,1,1,5.09-5.09l4.46-4.46A10,10,0,0,0,14.63,30.49Z"/><path class="cls-1" d="M60.45,46.18a9.87,9.87,0,0,1-7.13-2.93,9.78,9.78,0,0,1,0-14.1,9.82,9.82,0,0,1,7.13-3,9.56,9.56,0,0,1,6.84,2.76l-1.92,2a7,7,0,0,0-4.92-1.95,6.86,6.86,0,0,0-5.08,2.16,7.28,7.28,0,0,0,0,10.21,7.26,7.26,0,0,0,10.12.12A5.72,5.72,0,0,0,67,38.06H60.48V35.29h9.18A8.68,8.68,0,0,1,69.77,37a8.64,8.64,0,0,1-2.37,6.38A9.22,9.22,0,0,1,60.45,46.18Zm21.34-1.84a6.63,6.63,0,0,1-9.16,0,6.58,6.58,0,0,1,0-9.19,6.63,6.63,0,0,1,9.16,0,6.57,6.57,0,0,1,0,9.19Zm-7.13-1.81a3.49,3.49,0,0,0,5,.16s.11-.1.16-.16a3.85,3.85,0,0,0,1.08-2.79,3.88,3.88,0,0,0-1.08-2.8,3.56,3.56,0,0,0-5-.1l-.11.1a4.14,4.14,0,0,0,0,5.59Zm21.21,1.81a6.63,6.63,0,0,1-9.16,0,6.58,6.58,0,0,1,0-9.19,6.63,6.63,0,0,1,9.16,0,6.58,6.58,0,0,1,0,9.19Zm-7.14-1.81a3.5,3.5,0,0,0,5,.16s.11-.1.16-.16a3.85,3.85,0,0,0,1.08-2.79,3.88,3.88,0,0,0-1.08-2.8,3.56,3.56,0,0,0-5-.1l-.11.1a4.14,4.14,0,0,0,0,5.59ZM105.12,52a5.71,5.71,0,0,1-3.6-1.15,6.57,6.57,0,0,1-2.09-2.66l2.46-1a4.24,4.24,0,0,0,1.22,1.62,3.14,3.14,0,0,0,2,.68,3.26,3.26,0,0,0,2.52-1,4,4,0,0,0,.9-2.81v-.93h-.1a4.13,4.13,0,0,1-3.38,1.46,5.85,5.85,0,0,1-4.33-1.88,6.53,6.53,0,0,1,0-9.09,5.86,5.86,0,0,1,4.33-1.89,4.55,4.55,0,0,1,2,.44,3.75,3.75,0,0,1,1.4,1h.1v-1h2.68V45.24a6.69,6.69,0,0,1-1.72,5A6,6,0,0,1,105.12,52Zm.2-8.3a3.14,3.14,0,0,0,2.44-1.09,4,4,0,0,0,1-2.76,4.12,4.12,0,0,0-1-2.83,3.16,3.16,0,0,0-2.44-1.08A3.36,3.36,0,0,0,102.79,37a3.92,3.92,0,0,0-1.08,2.8,3.86,3.86,0,0,0,1.08,2.77A3.34,3.34,0,0,0,105.32,43.65ZM116,26.89v18.9h-2.82V26.89Zm7.74,19.29a6.19,6.19,0,0,1-4.55-1.85,6.3,6.3,0,0,1-1.83-4.59,6.4,6.4,0,0,1,1.77-4.63,5.81,5.81,0,0,1,4.32-1.8,5.33,5.33,0,0,1,2.16.42,5.23,5.23,0,0,1,1.66,1.08,7.61,7.61,0,0,1,1.08,1.31,7.41,7.41,0,0,1,.63,1.26l.3.74-8.65,3.56a3.23,3.23,0,0,0,3.11,1.94,3.67,3.67,0,0,0,3.17-1.78l2.16,1.46a7.11,7.11,0,0,1-2.08,2A5.92,5.92,0,0,1,123.75,46.18Zm-3.61-6.63,5.75-2.39a2,2,0,0,0-.89-1,3,3,0,0,0-1.48-.37,3.36,3.36,0,0,0-2.33,1A3.45,3.45,0,0,0,120.14,39.55Z"/><path class="cls-1" d="M144.07,46.18A8.91,8.91,0,0,1,135,37.42v-.36a8.9,8.9,0,0,1,8.7-9.11h.36a8.05,8.05,0,0,1,6.41,2.85l-1.56,1.51a5.9,5.9,0,0,0-4.84-2.22A6.6,6.6,0,0,0,139.27,32a6.72,6.72,0,0,0-2,5,6.74,6.74,0,0,0,2,5A6.59,6.59,0,0,0,144.08,44a6.88,6.88,0,0,0,5.4-2.53L151,43.05a8.58,8.58,0,0,1-3,2.28A9.14,9.14,0,0,1,144.07,46.18Z"/><path class="cls-1" d="M155.22,45.79H153V28.32h2.23Z"/><path class="cls-1" d="M158.88,35.28a6.33,6.33,0,1,1,0,9.08,6.82,6.82,0,0,1,0-9.08ZM160.55,43a3.76,3.76,0,0,0,5.33.15L166,43a4.8,4.8,0,0,0,0-6.26,3.78,3.78,0,0,0-5.34-.15l-.14.15a4.77,4.77,0,0,0,0,6.25Z"/><path class="cls-1" d="M181.83,45.79h-2.16V44.13h-.06A4.11,4.11,0,0,1,178,45.62a4.43,4.43,0,0,1-2.22.6,4.21,4.21,0,0,1-3.39-1.36,5.44,5.44,0,0,1-1.16-3.66V33.85h2.24v6.94q0,3.35,2.95,3.34a2.73,2.73,0,0,0,2.27-1.08,4.09,4.09,0,0,0,.88-2.58V33.85h2.24V45.79Z"/><path class="cls-1" d="M189.43,46.18a5.3,5.3,0,0,1-4-1.83,7,7,0,0,1,0-9.06A5.35,5.35,0,0,1,191.88,34a4.14,4.14,0,0,1,1.62,1.46h.1l-.1-1.65V28.32h2.24V45.79h-2.17V44.13h-.09a4.07,4.07,0,0,1-1.62,1.46A5.13,5.13,0,0,1,189.43,46.18Zm.37-2A3.53,3.53,0,0,0,192.49,43a4.35,4.35,0,0,0,1.08-3.14,4.38,4.38,0,0,0-1.08-3.15,3.65,3.65,0,0,0-5.16-.24,2.72,2.72,0,0,0-.24.24A4.34,4.34,0,0,0,186,39.8a4.35,4.35,0,0,0,1.08,3.14A3.56,3.56,0,0,0,189.8,44.13Z"/></svg>