<svg version="1.1" xmlns="http://www.w3.org/2000/svg" viewBox="0 0 752.1315789473682 593" width="752.1315789473682" height="593">
  <!-- svg-source:excalidraw -->
  
  <defs>
    <style class="style-fonts">
      @font-face {
        font-family: "Virgil";
        src: url("https://excalidraw.com/Virgil.woff2");
      }
      @font-face {
        font-family: "Cascadia";
        src: url("https://excalidraw.com/Cascadia.woff2");
      }
    </style>
  </defs>
  <g stroke-opacity="0.2" fill-opacity="0.2" stroke-linecap="round" transform="translate(119 10) rotate(0 311.5657894736841 190.82244897959185)"><path d="M7.86 8.16 C7.86 8.16, 7.86 8.16, 7.86 8.16 M7.86 8.16 C7.86 8.16, 7.86 8.16, 7.86 8.16 M2.75 26.24 C9.59 18.36, 16.43 10.49, 25.05 0.58 M2.75 26.24 C10.2 17.67, 17.64 9.1, 25.05 0.58 M4.85 36.01 C13.83 25.69, 22.8 15.36, 34.37 2.05 M4.85 36.01 C15.41 23.86, 25.98 11.71, 34.37 2.05 M4.98 48.06 C20.84 29.81, 36.71 11.56, 45 2.02 M4.98 48.06 C15.97 35.42, 26.96 22.78, 45 2.02 M4.46 60.85 C22.91 39.62, 41.36 18.4, 55.63 1.98 M4.46 60.85 C22.7 39.87, 40.94 18.89, 55.63 1.98 M4.59 72.89 C29.11 44.68, 53.63 16.48, 66.26 1.95 M4.59 72.89 C19.65 55.57, 34.7 38.25, 66.26 1.95 M4.72 84.93 C24.42 62.28, 44.11 39.62, 76.89 1.91 M4.72 84.93 C30.42 55.37, 56.12 25.81, 76.89 1.91 M4.86 96.97 C34.37 63.03, 63.88 29.08, 87.52 1.88 M4.86 96.97 C37.71 59.18, 70.57 21.38, 87.52 1.88 M4.99 109.01 C39.12 69.76, 73.24 30.5, 98.15 1.85 M4.99 109.01 C39.47 69.35, 73.96 29.68, 98.15 1.85 M4.47 121.81 C25.72 97.37, 46.96 72.92, 108.78 1.81 M4.47 121.81 C33.83 88.03, 63.2 54.25, 108.78 1.81 M4.6 133.85 C38.93 94.36, 73.26 54.87, 119.41 1.78 M4.6 133.85 C45.27 87.07, 85.93 40.29, 119.41 1.78 M4.73 145.89 C36.03 109.89, 67.33 73.88, 130.04 1.74 M4.73 145.89 C46.76 97.55, 88.78 49.21, 130.04 1.74 M4.87 157.93 C54.01 101.4, 103.16 44.86, 140.67 1.71 M4.87 157.93 C46.42 110.13, 87.98 62.32, 140.67 1.71 M5 169.97 C47.25 121.37, 89.5 72.76, 150.65 2.43 M5 169.97 C61.86 104.57, 118.71 39.16, 150.65 2.43 M4.48 182.77 C63.86 114.45, 123.25 46.14, 161.28 2.39 M4.48 182.77 C61.77 116.86, 119.07 50.95, 161.28 2.39 M4.61 194.81 C55.19 136.63, 105.76 78.45, 171.91 2.36 M4.61 194.81 C66.52 123.59, 128.42 52.38, 171.91 2.36 M4.74 206.85 C41.39 164.69, 78.04 122.54, 182.54 2.32 M4.74 206.85 C60.67 142.51, 116.6 78.17, 182.54 2.32 M4.88 218.89 C70.19 143.76, 135.51 68.62, 193.17 2.29 M4.88 218.89 C78.32 134.4, 151.77 49.91, 193.17 2.29 M5.01 230.93 C51.41 177.56, 97.8 124.19, 203.8 2.26 M5.01 230.93 C60.22 167.42, 115.44 103.9, 203.8 2.26 M4.49 243.73 C60.56 179.22, 116.64 114.71, 214.43 2.22 M4.49 243.73 C58.72 181.33, 112.96 118.94, 214.43 2.22 M4.62 255.77 C66.95 184.06, 129.28 112.36, 225.06 2.19 M4.62 255.77 C53.44 199.61, 102.25 143.45, 225.06 2.19 M4.75 267.81 C94.6 164.45, 184.45 61.09, 235.69 2.15 M4.75 267.81 C91.34 168.2, 177.93 68.6, 235.69 2.15 M4.89 279.85 C79.55 193.96, 154.21 108.08, 246.32 2.12 M4.89 279.85 C66.29 209.22, 127.69 138.58, 246.32 2.12 M5.02 291.89 C60.87 227.64, 116.72 163.39, 256.95 2.08 M5.02 291.89 C63.5 224.62, 121.97 157.35, 256.95 2.08 M4.5 304.69 C83.59 213.7, 162.68 122.72, 267.58 2.05 M4.5 304.69 C90.58 205.65, 176.67 106.62, 267.58 2.05 M4.63 316.73 C102.22 204.47, 199.8 92.21, 278.21 2.01 M4.63 316.73 C90.62 217.8, 176.61 118.88, 278.21 2.01 M4.76 328.77 C112.02 205.38, 219.29 81.99, 288.84 1.98 M4.76 328.77 C99.42 219.88, 194.07 110.99, 288.84 1.98 M4.9 340.81 C113.48 215.89, 222.07 90.98, 299.47 1.94 M4.9 340.81 C122.19 205.87, 239.49 70.94, 299.47 1.94 M1.09 357.38 C91.79 253.04, 182.49 148.71, 310.1 1.91 M1.09 357.38 C65.21 283.62, 129.32 209.87, 310.1 1.91 M4.51 365.65 C104.06 251.12, 203.62 136.6, 320.73 1.88 M4.51 365.65 C84.37 273.77, 164.23 181.9, 320.73 1.88 M7.92 373.91 C116.17 249.38, 224.43 124.85, 331.36 1.84 M7.92 373.91 C81.5 289.27, 155.08 204.63, 331.36 1.84 M14.61 378.41 C91.69 289.74, 168.77 201.07, 341.99 1.81 M14.61 378.41 C125.4 250.96, 236.19 123.52, 341.99 1.81 M21.31 382.9 C94.26 298.98, 167.21 215.06, 352.62 1.77 M21.31 382.9 C124.94 263.68, 228.58 144.46, 352.62 1.77 M32.59 382.11 C116.41 285.7, 200.22 189.28, 363.25 1.74 M32.59 382.11 C134.75 264.59, 236.91 147.07, 363.25 1.74 M43.22 382.08 C109.98 305.29, 176.73 228.5, 373.88 1.7 M43.22 382.08 C150.77 258.36, 258.31 134.64, 373.88 1.7 M53.85 382.04 C144.5 277.77, 235.15 173.49, 383.85 2.42 M53.85 382.04 C156.02 264.51, 258.18 146.99, 383.85 2.42 M64.48 382.01 C184.75 243.65, 305.02 105.3, 394.48 2.39 M64.48 382.01 C186.18 242.01, 307.88 102.01, 394.48 2.39 M75.11 381.97 C170.05 272.76, 264.98 163.55, 405.11 2.35 M75.11 381.97 C166.81 276.48, 258.52 170.99, 405.11 2.35 M85.74 381.94 C193.13 258.4, 300.52 134.87, 415.74 2.32 M85.74 381.94 C181.31 272.01, 276.87 162.08, 415.74 2.32 M96.37 381.9 C183.45 281.73, 270.53 181.56, 426.37 2.29 M96.37 381.9 C176.76 289.43, 257.14 196.96, 426.37 2.29 M107 381.87 C217.58 254.66, 328.16 127.45, 437 2.25 M107 381.87 C231.08 239.13, 355.16 96.4, 437 2.25 M117.63 381.84 C202.61 284.08, 287.58 186.33, 447.63 2.22 M117.63 381.84 C193.09 295.03, 268.55 208.23, 447.63 2.22 M128.26 381.8 C252.54 238.84, 376.82 95.87, 458.26 2.18 M128.26 381.8 C213.59 283.64, 298.92 185.48, 458.26 2.18 M138.89 381.77 C239.73 265.76, 340.57 149.76, 468.89 2.15 M138.89 381.77 C253.48 249.95, 368.07 118.14, 468.89 2.15 M148.87 382.49 C236.79 281.35, 324.71 180.21, 479.52 2.11 M148.87 382.49 C218.32 302.6, 287.76 222.71, 479.52 2.11 M159.5 382.45 C267.94 257.71, 376.38 132.96, 490.15 2.08 M159.5 382.45 C260.55 266.2, 361.61 149.95, 490.15 2.08 M170.13 382.42 C286.43 248.63, 402.72 114.85, 500.78 2.04 M170.13 382.42 C251.24 289.11, 332.35 195.81, 500.78 2.04 M180.76 382.38 C255.92 295.92, 331.08 209.46, 511.41 2.01 M180.76 382.38 C280.73 267.38, 380.71 152.37, 511.41 2.01 M191.39 382.35 C262.69 300.32, 334 218.3, 522.04 1.98 M191.39 382.35 C264.62 298.1, 337.85 213.86, 522.04 1.98 M202.02 382.31 C330.67 234.31, 459.33 86.31, 532.67 1.94 M202.02 382.31 C310.51 257.51, 419 132.7, 532.67 1.94 M212.65 382.28 C335.67 240.76, 458.69 99.24, 543.3 1.91 M212.65 382.28 C324.36 253.77, 436.08 125.26, 543.3 1.91 M223.28 382.25 C349.46 237.09, 475.64 91.94, 553.93 1.87 M223.28 382.25 C311.16 281.14, 399.05 180.04, 553.93 1.87 M233.91 382.21 C355.64 242.18, 477.36 102.15, 564.56 1.84 M233.91 382.21 C311.92 292.47, 389.92 202.74, 564.56 1.84 M244.54 382.18 C329.17 284.82, 413.8 187.46, 575.19 1.8 M244.54 382.18 C373.65 233.65, 502.76 85.13, 575.19 1.8 M255.17 382.14 C349.04 274.15, 442.92 166.16, 585.82 1.77 M255.17 382.14 C354.14 268.29, 453.11 154.43, 585.82 1.77 M265.8 382.11 C346.83 288.89, 427.86 195.68, 595.14 3.24 M265.8 382.11 C354.52 280.05, 443.24 177.98, 595.14 3.24 M276.43 382.07 C352.89 294.11, 429.35 206.15, 605.77 3.21 M276.43 382.07 C393 247.98, 509.56 113.88, 605.77 3.21 M287.06 382.04 C374.63 281.3, 462.2 180.56, 613.12 6.95 M287.06 382.04 C372.49 283.76, 457.92 185.48, 613.12 6.95 M297.69 382 C380.64 286.58, 463.59 191.16, 618.5 12.95 M297.69 382 C415.68 246.27, 533.68 110.53, 618.5 12.95 M308.32 381.97 C378.58 301.15, 448.84 220.32, 623.23 19.71 M308.32 381.97 C377.59 302.28, 446.86 222.59, 623.23 19.71 M318.95 381.93 C392.47 297.36, 465.99 212.79, 623.36 31.75 M318.95 381.93 C425.84 258.98, 532.72 136.02, 623.36 31.75 M329.58 381.9 C415.21 283.4, 500.84 184.89, 622.84 44.55 M329.58 381.9 C443.1 251.31, 556.62 120.73, 622.84 44.55 M340.21 381.87 C451.14 254.26, 562.06 126.65, 622.97 56.59 M340.21 381.87 C412.7 298.48, 485.18 215.1, 622.97 56.59 M350.84 381.83 C416.29 306.54, 481.73 231.26, 623.1 68.63 M350.84 381.83 C432.35 288.06, 513.86 194.3, 623.1 68.63 M361.47 381.8 C454.39 274.91, 547.31 168.01, 623.24 80.67 M361.47 381.8 C434.26 298.06, 507.05 214.33, 623.24 80.67 M372.1 381.76 C451.56 290.35, 531.03 198.94, 623.37 92.71 M372.1 381.76 C443.72 299.37, 515.34 216.98, 623.37 92.71 M382.07 382.48 C455.85 297.61, 529.63 212.74, 622.85 105.5 M382.07 382.48 C467.08 284.69, 552.1 186.9, 622.85 105.5 M392.7 382.45 C473.39 289.63, 554.07 196.82, 622.98 117.54 M392.7 382.45 C476.63 285.9, 560.55 189.36, 622.98 117.54 M403.33 382.41 C459.67 317.61, 516 252.8, 623.11 129.59 M403.33 382.41 C460.55 316.59, 517.77 250.77, 623.11 129.59 M413.96 382.38 C467.62 320.66, 521.27 258.93, 623.25 141.63 M413.96 382.38 C487.25 298.07, 560.54 213.76, 623.25 141.63 M424.59 382.34 C493.61 302.95, 562.63 223.55, 623.38 153.67 M424.59 382.34 C488.42 308.93, 552.24 235.51, 623.38 153.67 M435.22 382.31 C497.27 310.94, 559.31 239.57, 622.86 166.46 M435.22 382.31 C500.34 307.41, 565.45 232.5, 622.86 166.46 M445.85 382.28 C508.63 310.07, 571.4 237.86, 622.99 178.5 M445.85 382.28 C498.74 321.44, 551.62 260.6, 622.99 178.5 M456.48 382.24 C515.21 314.68, 573.94 247.13, 623.12 190.54 M456.48 382.24 C498.46 333.96, 540.43 285.67, 623.12 190.54 M467.11 382.21 C527.38 312.88, 587.64 243.56, 623.26 202.59 M467.11 382.21 C513.7 328.61, 560.29 275.02, 623.26 202.59 M477.74 382.17 C519.07 334.63, 560.39 287.1, 623.39 214.63 M477.74 382.17 C514.73 339.63, 551.71 297.09, 623.39 214.63 M488.38 382.14 C539.87 322.9, 591.36 263.66, 622.87 227.42 M488.38 382.14 C524.45 340.63, 560.53 299.13, 622.87 227.42 M499.01 382.1 C544.81 329.41, 590.62 276.71, 623 239.46 M499.01 382.1 C540.48 334.4, 581.95 286.69, 623 239.46 M509.64 382.07 C534.48 353.48, 559.33 324.9, 623.13 251.5 M509.64 382.07 C543.47 343.14, 577.31 304.22, 623.13 251.5 M520.27 382.03 C544.69 353.93, 569.12 325.83, 623.27 263.54 M520.27 382.03 C558.07 338.55, 595.87 295.07, 623.27 263.54 M530.9 382 C549.46 360.65, 568.02 339.29, 623.4 275.59 M530.9 382 C560.5 347.94, 590.11 313.88, 623.4 275.59 M541.53 381.97 C573.86 344.77, 606.19 307.58, 622.88 288.38 M541.53 381.97 C559.2 361.64, 576.87 341.31, 622.88 288.38 M552.16 381.93 C578.19 351.98, 604.23 322.03, 623.01 300.42 M552.16 381.93 C566.92 364.94, 581.69 347.96, 623.01 300.42 M562.79 381.9 C583.52 358.05, 604.25 334.2, 623.14 312.46 M562.79 381.9 C577.46 365.02, 592.13 348.14, 623.14 312.46 M573.42 381.86 C592.94 359.41, 612.46 336.95, 623.28 324.5 M573.42 381.86 C587.36 365.83, 601.3 349.79, 623.28 324.5 M584.05 381.83 C593.94 370.44, 603.84 359.05, 623.41 336.54 M584.05 381.83 C599.58 363.96, 615.11 346.09, 623.41 336.54 M593.36 383.3 C601.57 373.87, 609.77 364.43, 622.89 349.34 M593.36 383.3 C604.94 369.98, 616.53 356.66, 622.89 349.34 M605.96 381 C611.29 374.87, 616.63 368.74, 624.99 359.12 M605.96 381 C611.94 374.13, 617.91 367.26, 624.99 359.12" stroke="#228be6" stroke-width="1" fill="none"></path><path d="M32 0 M32 0 C179.71 0, 327.43 0, 591.13 0 M32 0 C170.3 0, 308.59 0, 591.13 0 M591.13 0 C612.46 0, 623.13 10.67, 623.13 32 M591.13 0 C612.46 0, 623.13 10.67, 623.13 32 M623.13 32 C623.13 140.93, 623.13 249.86, 623.13 349.64 M623.13 32 C623.13 109.25, 623.13 186.5, 623.13 349.64 M623.13 349.64 C623.13 370.98, 612.46 381.64, 591.13 381.64 M623.13 349.64 C623.13 370.98, 612.46 381.64, 591.13 381.64 M591.13 381.64 C412.53 381.64, 233.93 381.64, 32 381.64 M591.13 381.64 C400.65 381.64, 210.16 381.64, 32 381.64 M32 381.64 C10.67 381.64, 0 370.98, 0 349.64 M32 381.64 C10.67 381.64, 0 370.98, 0 349.64 M0 349.64 C0 280.92, 0 212.2, 0 32 M0 349.64 C0 244.47, 0 139.29, 0 32 M0 32 C0 10.67, 10.67 0, 32 0 M0 32 C0 10.67, 10.67 0, 32 0" stroke="#343a40" stroke-width="2" fill="none"></path></g><g transform="translate(372 22) rotate(0 51.200103759765625 10)"><text x="0" y="0" font-family="Virgil, Segoe UI Emoji" font-size="16px" fill="#343a40" text-anchor="start" style="white-space: pre;" direction="ltr" dominant-baseline="text-before-edge">Réseau privé</text></g><g stroke-linecap="round" transform="translate(79 156) rotate(0 40 40)"><path d="M20 0 M20 0 C36.3 -1.41, 51.72 -0.43, 60 0 M20 0 C30.88 0.04, 41.06 0.71, 60 0 M60 0 C71.94 -1.54, 78.4 4.82, 80 20 M60 0 C75.21 0.62, 81.3 5.95, 80 20 M80 20 C78.55 28.27, 77.87 38.06, 80 60 M80 20 C79.23 28.77, 79.53 39.79, 80 60 M80 60 C81.02 74.23, 72.05 78.83, 60 80 M80 60 C79.66 71.72, 74.99 79.82, 60 80 M60 80 C43.4 79.77, 30.15 82.12, 20 80 M60 80 C48.35 80.65, 37.48 80.88, 20 80 M20 80 C6.86 79.93, 0.6 71.67, 0 60 M20 80 C4.68 80.49, -1 74.4, 0 60 M0 60 C-0.8 49.84, -0.91 43.07, 0 20 M0 60 C0.62 44.76, -0.08 30.01, 0 20 M0 20 C-0.76 7.93, 4.95 -0.48, 20 0 M0 20 C-1.56 7.93, 7.23 -1.18, 20 0" stroke="#343a40" stroke-width="2" fill="none"></path></g><g transform="translate(108.39198303222656 186) rotate(0 10.608016967773438 10)"><text x="10.608016967773438" y="0" font-family="Virgil, Segoe UI Emoji" font-size="16px" fill="#343a40" text-anchor="middle" style="white-space: pre;" direction="ltr" dominant-baseline="text-before-edge">LB</text></g><g stroke-linecap="round" transform="translate(243 152) rotate(0 47 45.5)"><path d="M60 11.5 M60 11.5 C67.32 17.73, 73.05 24.88, 82 34.5 M60 11.5 C63.97 17.79, 70.24 22.85, 82 34.5 M82 34.5 C93.38 44.4, 93.33 47.91, 82 57.5 M82 34.5 C92.49 45.39, 91.7 46.54, 82 57.5 M82 57.5 C75.08 61.07, 70.36 69.11, 60 79.5 M82 57.5 C73.79 64.94, 65.95 73.53, 60 79.5 M60 79.5 C47.84 92.51, 48.68 92.91, 36 79.5 M60 79.5 C46.18 90.3, 48.22 93, 36 79.5 M36 79.5 C28.79 74.61, 22.96 68.83, 12 57.5 M36 79.5 C27.74 71.89, 21.35 65.51, 12 57.5 M12 57.5 C0.92 44.63, -1.41 46.12, 12 34.5 M12 57.5 C-1.25 44.97, -1.37 47.83, 12 34.5 M12 34.5 C22.09 24.75, 29.41 15.99, 36 11.5 M12 34.5 C17.9 28.01, 24.97 22.91, 36 11.5 M36 11.5 C46.97 1.01, 49.74 -1.33, 60 11.5 M36 11.5 C46 -0.5, 48.48 1.97, 60 11.5" stroke="#343a40" stroke-width="2" fill="none"></path></g><g transform="translate(275.5919723510742 187.75) rotate(0 14.408027648925781 10)"><text x="14.408027648925781" y="0" font-family="Virgil, Segoe UI Emoji" font-size="16px" fill="#343a40" text-anchor="middle" style="white-space: pre;" direction="ltr" dominant-baseline="text-before-edge">Web</text></g><g stroke-linecap="round" transform="translate(605.6802174782821 104.25) rotate(0 21.5 8.5)"><path d="M26.99 0.19 C31.38 0.69, 35.92 2.88, 38.6 4.34 C41.29 5.8, 43.48 7.4, 43.12 8.96 C42.75 10.52, 39.68 12.31, 36.42 13.69 C33.16 15.08, 27.99 16.92, 23.56 17.29 C19.12 17.67, 13.55 17.16, 9.79 15.93 C6.03 14.7, 2.48 11.82, 1.01 9.92 C-0.47 8.02, -1 5.99, 0.94 4.52 C2.89 3.05, 7.56 1.58, 12.67 1.11 C17.77 0.63, 27.86 1.63, 31.56 1.66 C35.27 1.68, 34.99 1.27, 34.89 1.28 M12.05 0.4 C15.68 -0.96, 20.45 -1.68, 25.05 -1.07 C29.65 -0.45, 36.74 2.55, 39.66 4.1 C42.57 5.66, 42.63 6.43, 42.51 8.25 C42.4 10.07, 42 13.55, 38.96 15.02 C35.92 16.49, 28.91 17.19, 24.28 17.08 C19.65 16.96, 15.19 15.18, 11.19 14.34 C7.19 13.5, 1.71 13.68, 0.27 12.05 C-1.16 10.42, 0.81 6.26, 2.56 4.55 C4.3 2.84, 9.38 2.38, 10.73 1.79 C12.09 1.2, 10.54 1.14, 10.69 1.02" stroke="#000000" stroke-width="1" fill="none"></path></g><g stroke-linecap="round" transform="translate(606.1802174782821 140.75) rotate(0 21.5 8.5)"><path d="M12.59 0.36 C16.63 -0.44, 23.7 0.01, 28.11 0.5 C32.52 0.99, 36.73 1.81, 39.07 3.29 C41.4 4.76, 42.5 7.37, 42.13 9.33 C41.76 11.29, 39.94 13.74, 36.84 15.05 C33.74 16.36, 28.32 17.31, 23.53 17.2 C18.73 17.09, 11.97 15.44, 8.09 14.41 C4.2 13.38, 1.15 12.58, 0.21 11.03 C-0.74 9.48, -0.7 6.93, 2.41 5.11 C5.51 3.28, 15.42 0.77, 18.84 0.08 C22.26 -0.62, 23.01 0.95, 22.95 0.93 M18.72 -0.88 C22.59 -1.07, 28.27 1.58, 32.32 2.68 C36.37 3.77, 41.64 3.91, 43.02 5.7 C44.39 7.5, 42.46 11.76, 40.57 13.47 C38.68 15.17, 35.73 15.21, 31.7 15.94 C27.67 16.67, 21.24 18.37, 16.4 17.83 C11.57 17.29, 5.27 14.19, 2.7 12.7 C0.13 11.21, 0.55 10.67, 0.98 8.87 C1.41 7.07, 2.12 3.53, 5.31 1.9 C8.5 0.28, 17.78 -0.47, 20.1 -0.88 C22.42 -1.29, 19.44 -0.96, 19.23 -0.57" stroke="#000000" stroke-width="1" fill="none"></path></g><g stroke-linecap="round"><g transform="translate(605.6802174782821 113.25) rotate(0 -0.38406326436438576 17.37216586717404)"><path d="M0.61 -1.02 C0.59 4.49, -0.16 28.39, -0.28 34.15 M-0.54 1.06 C-0.71 7.3, -1.31 30.17, -1.37 35.76" stroke="#000000" stroke-width="1" fill="none"></path></g></g><mask></mask><g stroke-linecap="round"><g transform="translate(649.6802174782821 113.25) rotate(0 -0.19043636628191507 17.96399962160736)"><path d="M-1.02 -0.28 C-1.18 5.6, 0.06 29.71, 0.15 35.91 M0.65 -1.47 C0.25 4.56, -0.37 31.31, -0.72 37.4" stroke="#000000" stroke-width="1" fill="none"></path></g></g><mask></mask><g stroke-linecap="round"><g transform="translate(627.8344265951617 165.99977497338205) rotate(0 0.911202415877824 37.87836878947224)"><path d="M0.15 -0.09 C0.83 12.78, 2.46 64.3, 3.06 76.94 M-1.24 -1.18 C-0.67 11.39, 1.14 62.29, 1.86 75.31" stroke="#000000" stroke-width="2" fill="none"></path></g><g transform="translate(627.8344265951617 165.99977497338205) rotate(0 0.911202415877824 37.87836878947224)"><path d="M-9.79 46.82 C-5.66 53.92, -5.15 58.66, 0.34 75.28 M-9.41 46.74 C-6.66 56.33, -1.41 66.29, 2.16 76.04" stroke="#000000" stroke-width="2" fill="none"></path></g><g transform="translate(627.8344265951617 165.99977497338205) rotate(0 0.911202415877824 37.87836878947224)"><path d="M10.72 45.91 C10.43 53.23, 6.52 58.17, 0.34 75.28 M11.09 45.84 C7.01 55.81, 5.43 66.08, 2.16 76.04" stroke="#000000" stroke-width="2" fill="none"></path></g></g><mask></mask><g stroke-linecap="round" transform="translate(606.9978360739254 249.25) rotate(0 21.5 8.5)"><path d="M19.97 0.52 C24.46 0.35, 30.57 0.85, 34.32 1.83 C38.08 2.82, 41.37 4.58, 42.51 6.44 C43.65 8.29, 43.25 11.4, 41.17 12.96 C39.08 14.52, 34.09 15.34, 30.01 15.81 C25.93 16.29, 20.91 16.21, 16.69 15.81 C12.48 15.4, 7.61 14.68, 4.72 13.4 C1.83 12.12, -1.05 9.99, -0.64 8.14 C-0.23 6.29, 3.45 3.5, 7.18 2.31 C10.91 1.11, 19.14 1.36, 21.74 0.97 C24.33 0.57, 23.03 -0.17, 22.77 -0.03 M17.96 -0.7 C22.04 -0.86, 27.92 1.54, 32.07 2.6 C36.23 3.67, 41.22 4.27, 42.89 5.69 C44.57 7.1, 44 9.14, 42.12 11.12 C40.24 13.09, 35.68 16.61, 31.59 17.53 C27.5 18.44, 22.07 17.48, 17.56 16.59 C13.05 15.7, 7.2 13.74, 4.53 12.19 C1.85 10.64, 1.19 8.75, 1.5 7.3 C1.82 5.85, 3.22 4.46, 6.4 3.49 C9.58 2.52, 18.32 2.24, 20.6 1.47 C22.88 0.71, 20.31 -1.08, 20.07 -1.08" stroke="#000000" stroke-width="1" fill="none"></path></g><g stroke-linecap="round" transform="translate(607.4978360739254 285.75) rotate(0 21.5 8.5)"><path d="M17.78 0.67 C22.1 0.21, 28.15 0.47, 32.13 1.29 C36.11 2.11, 39.91 4.03, 41.68 5.58 C43.45 7.14, 44.31 8.81, 42.74 10.63 C41.17 12.45, 36.51 15.32, 32.28 16.5 C28.05 17.68, 21.83 18.24, 17.34 17.72 C12.85 17.2, 8.19 14.74, 5.36 13.39 C2.53 12.03, 0.52 11.16, 0.38 9.59 C0.24 8.02, 1.25 5.47, 4.53 3.96 C7.82 2.45, 17.39 1.3, 20.1 0.52 C22.82 -0.25, 20.78 -0.7, 20.81 -0.67 M21.48 -1.36 C26 -1.09, 33.57 1.33, 37.05 2.93 C40.53 4.53, 42.04 6.48, 42.36 8.25 C42.67 10.02, 41.07 11.99, 38.94 13.57 C36.8 15.16, 33.83 17.22, 29.56 17.75 C25.28 18.28, 18.02 17.37, 13.29 16.74 C8.56 16.11, 3.43 15.55, 1.18 13.95 C-1.06 12.36, -1.51 8.96, -0.18 7.17 C1.14 5.39, 5.15 4.31, 9.12 3.26 C13.1 2.21, 21.69 1.43, 23.66 0.88 C25.63 0.32, 21.07 -0.04, 20.92 -0.05" stroke="#000000" stroke-width="1" fill="none"></path></g><g stroke-linecap="round"><g transform="translate(606.9978360739254 258.25) rotate(0 -1.0688293108399876 16.337916147168727)"><path d="M-0.21 -0.47 C-0.36 5.43, -0.4 28.6, -0.27 34.44 M-1.78 -1.77 C-2.17 3.85, -1.68 26.83, -1.36 32.55" stroke="#000000" stroke-width="1" fill="none"></path></g></g><mask></mask><g stroke-linecap="round"><g transform="translate(650.9978360739254 258.25) rotate(0 0.5109831550925037 17.56156074070371)"><path d="M-0.47 -0.27 C-0.24 5.86, 0.26 30.48, 0.44 36.58 M1.48 -1.46 C1.67 4.34, -0.05 28.82, -0.27 34.77" stroke="#000000" stroke-width="1" fill="none"></path></g></g><mask></mask><g transform="translate(659.9999999999999 136) rotate(0 28.144065856933594 10)"><text x="0" y="0" font-family="Virgil, Segoe UI Emoji" font-size="16px" fill="#343a40" text-anchor="start" style="white-space: pre;" direction="ltr" dominant-baseline="text-before-edge">Master</text></g><g transform="translate(661.8559341430663 279) rotate(0 20.864044189453125 10)"><text x="0" y="0" font-family="Virgil, Segoe UI Emoji" font-size="16px" fill="#343a40" text-anchor="start" style="white-space: pre;" direction="ltr" dominant-baseline="text-before-edge">Slave</text></g><g transform="translate(542.035831666842 338.64903701286136) rotate(0 85.85111236572266 12.843525178830873)"><text x="0" y="0" font-family="Virgil, Segoe UI Emoji" font-size="20.54964028612938px" fill="#343a40" text-anchor="start" style="white-space: pre;" direction="ltr" dominant-baseline="text-before-edge">Base de données</text></g><g stroke-linecap="round" transform="translate(430.0000000000001 157) rotate(0 43.5 39.5)"><path d="M19.75 0 M19.75 0 C34.8 -0.96, 48.16 -0.22, 67.25 0 M19.75 0 C29.3 0.34, 40.4 -0.55, 67.25 0 M67.25 0 C79 1.12, 88.02 7.37, 87 19.75 M67.25 0 C80.1 -1.34, 85.82 7.13, 87 19.75 M87 19.75 C87.94 35.52, 86.23 51, 87 59.25 M87 19.75 C87.16 29.4, 87.27 36.98, 87 59.25 M87 59.25 C87.03 71.47, 82.34 78.49, 67.25 79 M87 59.25 C86.3 71.68, 81.69 80.7, 67.25 79 M67.25 79 C47.58 76.76, 29.84 79.93, 19.75 79 M67.25 79 C54.61 78.13, 40.63 79.04, 19.75 79 M19.75 79 C7.97 77.99, 0.35 72.41, 0 59.25 M19.75 79 C7.07 78.92, -0.19 73.58, 0 59.25 M0 59.25 C1.2 46.42, -1.86 32.12, 0 19.75 M0 59.25 C0.36 51.14, -0.88 43.31, 0 19.75 M0 19.75 C-1.87 6.71, 6.03 -1.95, 19.75 0 M0 19.75 C0.77 5.19, 7.51 -0.27, 19.75 0" stroke="#343a40" stroke-width="2" fill="none"></path></g><g transform="translate(437.36392211914074 186.5) rotate(0 36.136077880859375 10)"><text x="36.136077880859375" y="0" font-family="Virgil, Segoe UI Emoji" font-size="16px" fill="#343a40" text-anchor="middle" style="white-space: pre;" direction="ltr" dominant-baseline="text-before-edge">Maxscale</text></g><g stroke-linecap="round"><g transform="translate(158 196) rotate(0 43.95938875041901 -0.2702857945656376)"><path d="M0.24 -0.43 C14.97 -0.6, 73.21 -0.28, 87.68 -0.06" stroke="#343a40" stroke-width="2.5" fill="none" stroke-dasharray="1.5 8"></path></g></g><mask></mask><g stroke-linecap="round"><g transform="translate(339.54061124958093 197.27028579456567) rotate(0 44.74527896679933 0.16100637279450325)"><path d="M-0.7 -0.13 C14.48 -0.1, 74.89 0.08, 90.19 0.46" stroke="#343a40" stroke-width="2.5" fill="none" stroke-dasharray="1.5 8"></path></g></g><mask></mask><g stroke-linecap="round"><g transform="translate(517.2547210332008 195.83899362720547) rotate(0 44.685246091708564 -24.38590713702142)"><path d="M-0.54 -0.85 C14.61 -8.64, 74.91 -40.19, 89.91 -47.92" stroke="#343a40" stroke-width="2.5" fill="none" stroke-dasharray="1.5 8"></path></g></g><mask></mask><g stroke-linecap="round" transform="translate(543.9999999999999 75.5) rotate(0 95.5 131)"><path d="M27.74 38.69 C27.74 38.69, 27.74 38.69, 27.74 38.69 M27.74 38.69 C27.74 38.69, 27.74 38.69, 27.74 38.69 M20.34 51.51 C33.78 38.82, 42.94 24.38, 54.88 11.4 M19.78 53.98 C32.95 37.22, 46.16 22.38, 54.52 13.48 M11.9 66.4 C30.61 48.39, 50.25 27.43, 59.45 14.05 M14.02 66.43 C28.66 49.4, 45.62 29.68, 57.82 15.78 M10.63 77.78 C24.23 63.22, 36.32 45.88, 67.91 10.85 M10.61 76.43 C32 50.92, 54.38 26.1, 66.24 12.57 M10.24 82.62 C34.01 54.35, 61.35 25.56, 73.61 11.41 M10.27 83.86 C30.79 60.3, 49.77 38.07, 74.47 10.35 M6.77 92.08 C21.27 74.34, 36.34 54.79, 82.18 6.51 M7.37 92.69 C25.52 73.13, 42.61 52.9, 82.38 7.61 M4.81 98.76 C32.3 70.74, 57.81 42.34, 91.76 1.24 M6.46 100.34 C32.32 70.26, 59 40.44, 90.49 3.21 M3.57 107.61 C40.54 67.75, 77.46 26.27, 93.9 4.3 M5.66 107.93 C39.22 69.12, 70.77 32.39, 95.19 3.89 M1.8 116.1 C28.9 85.39, 54.86 53.08, 100.15 4.07 M3.77 114.58 C27.77 89.67, 48.85 63.57, 100.57 3.51 M2.48 122.21 C35.34 86.06, 66.16 53.17, 105.71 3.85 M4.32 120.64 C44.04 76.08, 84 29.58, 106.42 4.57 M3.12 128.09 C27.62 102.4, 51.5 76.42, 111.57 4.32 M4.15 127.61 C39.56 86.17, 74.14 44.28, 109.55 5.89 M3.1 132.47 C35.48 95.2, 67.42 61.9, 115.92 4.7 M3.95 133.73 C45.14 86.33, 85.81 39.64, 115.58 5.92 M2.56 137.67 C38.05 100.78, 66.56 68.33, 122.33 3.91 M3.53 139.18 C50.25 87.44, 95.93 36.58, 120.34 5.21 M3.84 144.71 C43.84 99.63, 83.49 50.35, 124 6.12 M4.47 144.49 C37.02 106.25, 70.36 67.31, 124.41 8.09 M3.65 150.27 C43.63 105.11, 80.73 63, 128.32 7.03 M4.64 149.66 C45.96 104.68, 84.03 59.23, 127.01 8.24 M3.87 156.93 C42.68 112.48, 82.07 69.6, 131.92 9.91 M6.2 155.61 C49.4 106.99, 92.6 56.11, 131.25 10.93 M3.7 162.03 C34.66 128.62, 68.21 92.13, 135.36 14.75 M6.1 161.3 C56.06 106.96, 104.45 51.81, 134.16 13.35 M5.84 168.04 C38.77 132.89, 68.76 96.22, 138.56 16.46 M5.52 167.38 C53.09 114.03, 97.58 62.95, 136.61 17.01 M7.12 170.23 C50.97 124.36, 93 76.63, 141.45 17.25 M6.71 171.53 C55.96 113.12, 107.06 55.64, 140.26 17.6 M10.76 174.93 C44.85 136.07, 77.49 97.88, 143.3 19.4 M8.85 175.42 C45.23 132.75, 82.61 90.81, 144.57 19.52 M8.94 181.64 C41.13 144.64, 70.54 109.36, 147.52 22.12 M11.5 181.11 C40.66 145.29, 70.49 111.11, 148.62 22.3 M12.3 182.98 C51.86 140.11, 88.11 98.62, 150.02 23.03 M13.02 184.93 C48.57 141.93, 86.29 97.75, 150.64 24.07 M13.84 190.99 C66.66 127.73, 118.94 70.91, 154.22 25.99 M13.79 189.9 C44.41 154.63, 75.92 119.42, 153.35 27.14 M15.34 193.76 C55.02 145.22, 94.76 100.45, 157.1 30.28 M15.32 193.41 C61.4 141.45, 107.47 88.33, 155.64 30.71 M17.02 198.81 C50.18 159.73, 79.58 126.64, 157.7 34.23 M17.3 197.34 C68.5 139.87, 119.39 80.87, 158.61 33.94 M18.51 201.16 C62.13 154.23, 101.66 107.21, 162.56 37.43 M17.94 201.78 C69.23 145.55, 120.34 85.85, 160.85 38.28 M17.99 205.72 C73.89 147.07, 126.93 85.82, 163.77 42.63 M20.33 206.64 C53.13 169.36, 84.89 132.02, 163.76 41.71 M21.84 208.55 C70.61 151.3, 120.33 91.62, 164.07 45.42 M22.29 209.65 C68.02 155.97, 114.25 102.79, 165.5 44.31 M24.48 214.41 C55.67 176.41, 89.94 140.49, 168.85 46.6 M24.32 213.68 C63.47 169.46, 103.42 123.22, 168.08 47.79 M25.16 216.81 C71.79 166.43, 121.91 111.02, 169.5 52.31 M26.61 218.22 C71.82 163.11, 118.03 108.74, 169.57 50.58 M27.55 220.77 C81.72 159.6, 135.41 99.95, 173.59 55.15 M28.88 221.56 C79.52 159.8, 133.38 98.35, 172.89 54.27 M30.91 224.35 C83.21 163.53, 133.22 103.73, 175.04 57.81 M31.38 224.18 C73 174.61, 115.76 124.12, 175.28 58.02 M33.66 226.54 C88.08 164.64, 143.55 97.39, 176.87 62.2 M33.45 228.13 C70.58 186.21, 106.38 146.2, 176.56 62.55 M35.73 232.58 C89.3 171.89, 139.55 110.86, 179.67 66.74 M35.27 231.29 C81.61 178, 128.89 124.9, 178.22 65.91 M39.36 233.32 C68.49 196.3, 100.22 161.38, 178.91 71.08 M37.16 234.69 C75.58 192.33, 110.82 149.81, 180.16 71.03 M40.39 239.15 C94.62 175.36, 153.36 112.04, 183.57 75.28 M38.96 239.28 C84.61 186.84, 129.8 133.61, 182.13 74.58 M43.37 240.86 C80.31 200.84, 112.57 160.19, 182.39 79.66 M43.16 239.98 C72.04 206, 100.52 174.73, 182.47 80.17 M45.02 242.18 C77.75 211.03, 106.36 175.32, 185.6 82.01 M46.52 243.72 C91.03 189.16, 137.59 135.57, 185.2 83.45 M51.2 246.05 C100.24 188.29, 149.82 131.57, 184.96 87.53 M50.11 245.25 C93.24 195.82, 135.28 145.95, 185.63 88.41 M52.22 245.59 C97.29 198.3, 139.2 145.77, 188.76 91.91 M53.59 247.4 C89.87 205.09, 126.71 163.7, 188.06 92.35 M57.46 250.39 C99.6 201.01, 139.61 157.07, 187.6 95.29 M56.31 248.65 C94.27 204.63, 133.22 159.75, 188.62 97.53 M60.77 250.51 C112.16 191.56, 162.78 133.61, 189.61 99.34 M61.3 250.92 C107.35 198.37, 154.08 144.1, 191.34 101.4 M65.74 253.81 C109.25 197.09, 154.88 144.01, 189.64 105.23 M64.66 254.05 C90.93 222.12, 119.35 190.93, 192.15 107.35 M68.44 255.83 C116.07 199.97, 166.69 142.86, 190.26 112.42 M67.33 255.75 C101.01 215, 135.07 176.82, 191.79 112.21 M71.52 257.05 C102.64 222.29, 133.54 187.17, 192.95 119.05 M70.28 258.22 C102.78 219.64, 135.72 180.38, 191.68 118.57 M74.6 258.46 C106.08 223.44, 135.18 191.16, 192.06 124.42 M74.02 260.78 C98.77 229.59, 126.58 200.87, 192.21 123.75 M77.56 262.15 C105.62 233.72, 128.63 204.69, 193.62 131.2 M78.23 260.69 C105.04 230.32, 130.9 199.88, 192.86 129.25 M82.87 259.39 C107.19 235.18, 131.86 205.68, 192.13 133.59 M83.35 260.41 C110.55 226.88, 139.46 195.07, 193.29 135.08 M86.31 263.97 C124.25 223.49, 159.52 179.08, 191.42 141.8 M87.54 261.2 C124.3 219.99, 159.26 178.77, 191.47 143.52 M92.42 261.65 C122.51 230.65, 149.15 197.44, 191.39 151.43 M93.46 261.75 C129.09 221.43, 165.85 178.75, 190.66 150.68 M99.38 262.87 C118.87 236.46, 143.81 208.75, 188.87 160.45 M97.42 263.15 C122.71 233.74, 146.66 205.72, 187.62 158.68 M105.12 261.17 C134.1 227.2, 165.86 189.6, 188.44 167.11 M102.74 262.49 C137.77 226.43, 169.68 188.77, 187.67 165.86 M111.43 258.15 C125.71 241.69, 142.55 222.38, 185.89 175.42 M112.22 260.05 C135.88 231.54, 160.04 201.98, 185.42 173.37 M118.91 258.12 C143.74 228.72, 166.11 201.91, 186.38 182.29 M118.26 257.21 C139.12 234.96, 156.47 212.7, 185.25 180.61 M124.96 254.35 C136.11 241.69, 148.75 225.84, 184.56 189.73 M127.22 254.84 C142.55 237.51, 158.16 218.63, 184.68 188.63 M132.01 254.18 C145.56 239.58, 154.67 228.3, 174.87 201.64 M132.9 251.69 C144.23 238.87, 154.68 226.15, 176.98 203.1" stroke="#fd7e14" stroke-width="0.5" fill="none"></path><path d="M88.45 1.32 C98.75 -1.83, 109.99 0.75, 120.42 4.56 C130.84 8.36, 142.23 15.68, 151.01 24.16 C159.8 32.65, 166.93 43.11, 173.12 55.46 C179.31 67.81, 185.16 83.82, 188.16 98.26 C191.16 112.7, 192.06 127.36, 191.12 142.09 C190.18 156.81, 187.19 173.12, 182.52 186.6 C177.85 200.09, 170.95 212.36, 163.12 223.01 C155.29 233.66, 145.62 244.07, 135.56 250.49 C125.5 256.9, 113.48 260.25, 102.78 261.51 C92.07 262.76, 81.84 261.87, 71.32 258.01 C60.79 254.14, 48.64 247.17, 39.63 238.32 C30.61 229.47, 23.33 217.15, 17.24 204.91 C11.15 192.67, 5.82 179.16, 3.1 164.88 C0.38 150.6, -0.18 134.2, 0.93 119.25 C2.03 104.29, 5.3 88.53, 9.72 75.16 C14.14 61.79, 19.76 49.45, 27.46 39.02 C35.16 28.59, 45.5 19.09, 55.93 12.58 C66.35 6.07, 83.65 1.47, 89.98 -0.04 C96.31 -1.55, 93.7 1.25, 93.9 3.52 M60.32 10.2 C69.25 2.55, 80.59 -0.37, 91.07 -0.89 C101.54 -1.41, 112.66 2.6, 123.17 7.09 C133.67 11.57, 145.28 17.22, 154.11 26.02 C162.93 34.82, 170.17 46.96, 176.13 59.88 C182.08 72.81, 187.66 88.97, 189.84 103.59 C192.02 118.21, 190.69 132.68, 189.19 147.59 C187.7 162.5, 185.74 179.88, 180.87 193.04 C175.99 206.19, 168.09 216.48, 159.92 226.54 C151.76 236.6, 141.85 247.29, 131.87 253.38 C121.88 259.48, 110.95 262.59, 100.01 263.1 C89.07 263.61, 76.87 261.19, 66.23 256.42 C55.59 251.66, 44.88 243.68, 36.17 234.51 C27.46 225.34, 19.74 214.02, 13.95 201.41 C8.15 188.81, 3.4 173.38, 1.39 158.88 C-0.63 144.38, 0.3 129.27, 1.87 114.42 C3.44 99.57, 5.82 83.03, 10.81 69.77 C15.81 56.5, 23.88 44.77, 31.84 34.82 C39.8 24.87, 53.97 13.74, 58.58 10.07 C63.19 6.41, 58.81 11.04, 59.48 12.85" stroke="#000000" stroke-width="1" fill="none"></path></g><g transform="translate(348.559666186869 557) rotate(0 66.23213958740234 13)"><text x="0" y="0" font-family="Virgil, Segoe UI Emoji" font-size="16px" fill="#000000" text-anchor="start" style="white-space: pre;" direction="ltr" dominant-baseline="text-before-edge">Cloud Disk Array</text></g><g stroke-linecap="round" transform="translate(342.0596661868692 489.5) rotate(0 19.5 10.25)"><path d="M0.21 1.45 L38.06 -1.62 L39.78 20.83 L-1.34 21.27" stroke="none" stroke-width="0" fill="#ced4da"></path><path d="M1.35 -1.56 C13.64 -1.69, 23.53 -0.6, 40.28 -0.91 M-0.86 0.41 C7.26 -0.33, 16.41 -0.37, 39.42 -0.79 M40.21 -1.73 C37.19 8.01, 40.27 12.94, 39.36 18.88 M39.81 0.8 C39.44 5.45, 39.32 11.71, 39.99 19.81 M39.31 21.13 C26 20, 13.1 20.33, 0.06 18.76 M38.25 20.13 C31.05 20.64, 20.82 19.78, -0.64 20.08 M-0.96 18.62 C-1.84 13.07, -0.45 6.86, 0.44 0.93 M0.98 21.19 C1.14 12.89, -0.4 4.41, -0.48 0.47" stroke="#000000" stroke-width="1" fill="none"></path></g><g stroke-linecap="round" transform="translate(397.559666186869 489.75) rotate(0 19.5 10.25)"><path d="M1.45 -0.94 L37.38 0.78 L39.33 19.16 L0.77 20.09" stroke="none" stroke-width="0" fill="#ced4da"></path><path d="M-1.56 1.34 C11.52 -1.33, 25.99 1.02, 38.09 -1.95 M0.41 -0.65 C13.71 0.93, 27.55 0.76, 38.21 0.28 M37.27 -1.72 C40.35 6.6, 38.57 10.84, 37.38 20.02 M39.8 0.58 C38.68 5.18, 39.27 10.43, 38.31 20.73 M39.63 20.11 C27.91 19.88, 17.47 20.62, -1.74 19.07 M38.63 21.46 C24.81 19.84, 9.46 19.57, -0.42 20.85 M-1.88 18.78 C-0.5 12.78, 0.16 6.17, 0.93 1.79 M0.69 21.47 C0.55 15.45, 0.05 11.06, 0.47 0.1" stroke="#000000" stroke-width="1" fill="none"></path></g><g stroke-linecap="round" transform="translate(342.8096661868692 524.625) rotate(0 19.5 10.25)"><path d="M-0.94 -1.62 L39.78 0.33 L37.66 21.27 L-0.41 22.01" stroke="none" stroke-width="0" fill="#ced4da"></path><path d="M1.34 -1.85 C9.02 -0.46, 21.45 -0.6, 37.05 1.11 M-0.65 -0.16 C14.04 -0.35, 27.3 -0.94, 39.28 -0.44 M37.28 1.29 C40.49 6.28, 39.48 11.94, 38.52 19.11 M39.58 -0.21 C39.62 5.37, 40.15 9.27, 39.23 20.26 M38.61 20.18 C28.43 20.64, 19.28 18.88, -1.43 21.93 M39.96 20.8 C28.52 19.8, 18.14 19.93, 0.35 21.1 M-1.72 19.93 C-0.23 15.12, 0.54 10.49, 1.79 -1.63 M0.97 20.87 C-0.77 15.97, -0.68 12.17, 0.1 0.72" stroke="#000000" stroke-width="1" fill="none"></path></g><g stroke-linecap="round" transform="translate(398.309666186869 523.875) rotate(0 19.5 10.25)"><path d="M-1.62 0.78 L39.33 -1.34 L39.77 20.09 L1.51 20.2" stroke="none" stroke-width="0" fill="#ced4da"></path><path d="M-1.85 -1.06 C13.56 1.02, 27.74 -2.21, 40.11 0.89 M-0.16 0.6 C8.15 0.68, 15.9 0.53, 38.56 0.31 M40.29 1.36 C38.33 7.75, 37.21 14.3, 37.61 19.36 M38.79 0.46 C39.55 8.79, 38.47 15.84, 38.76 20.04 M38.68 19.82 C26.71 20.48, 12.65 18.99, 1.43 19.69 M39.3 20.13 C29.68 20.24, 21.06 21.22, 0.6 20.17 M-0.57 20.17 C0.28 15.78, 1.12 11.96, -1.63 -1.7 M0.37 19.93 C-0.27 11.86, 0.33 4.29, 0.72 -0.47" stroke="#000000" stroke-width="1" fill="none"></path></g><g stroke-linecap="round" transform="translate(451.18466618686887 489.1875) rotate(0 19.5 10.25)"><path d="M0.78 0.33 L37.66 0.77 L38.59 22.01 L-0.3 18.64" stroke="none" stroke-width="0" fill="#ced4da"></path><path d="M-1.06 -0.76 C9.93 -0.55, 15.36 1.48, 39.89 -1.72 M0.6 -0.2 C13.71 -0.72, 26.85 -0.38, 39.31 0.6 M40.36 -0.5 C39.19 2.76, 38.35 7.37, 37.86 22.11 M39.46 0.39 C40.11 7.09, 39.35 15.33, 38.54 20.66 M38.32 20.51 C26.13 18.7, 11.71 21.87, -0.81 18.99 M38.63 19.94 C28.11 20.19, 18.84 21.22, -0.33 20.02 M-0.33 20.59 C0.62 17.2, 1.96 10.41, -1.7 1.96 M-0.57 20.38 C-0.68 13.4, -0.1 6.08, -0.47 -0.81" stroke="#000000" stroke-width="1" fill="none"></path></g><g stroke-linecap="round" transform="translate(451.93466618686887 523.3125) rotate(0 19.5 10.25)"><path d="M0.33 -1.34 L39.77 -0.41 L40.51 20.2 L-1.86 22.36" stroke="none" stroke-width="0" fill="#ced4da"></path><path d="M-0.76 1.28 C13.41 -1.74, 29.76 1.1, 37.28 0.81 M-0.2 0.42 C8.38 0.04, 17.89 0.07, 39.6 -0.86 M38.5 0.36 C37.52 3.91, 37.74 7.64, 40.61 22.09 M39.39 0.99 C38.26 7.58, 38.72 14.22, 39.16 20.82 M39.01 20.56 C26.32 18.94, 18.56 19.55, -1.51 19.76 M38.44 19.86 C23.14 20.71, 8.72 20.03, -0.48 19.56 M0.09 20.94 C0.99 17.9, -1.57 10.01, 1.96 1.39 M-0.12 20.02 C0.4 12.46, 0.65 3.74, -0.81 0.39" stroke="#000000" stroke-width="1" fill="none"></path></g><g stroke-linecap="round" transform="translate(331.0596661868692 480) rotate(0 87 37)"><path d="M1.28 -0.91 C34.12 1.78, 73.03 -1.06, 174.81 -1.3 M0.42 -0.79 C49.68 -0.1, 99.12 0.95, 173.14 -0.86 M174.36 -1.62 C174.03 25.58, 173.37 55.57, 175.59 75.16 M174.99 -0.69 C174.57 20.42, 173.88 41.48, 174.32 73.8 M174.06 72.26 C123.15 75.44, 74.36 72.5, -0.74 75.92 M173.36 73.58 C116.99 73.63, 58.94 72.55, -0.94 73.14 M0.44 74.93 C1.91 52.26, -1.58 35.75, 1.39 1.95 M-0.48 74.47 C0.53 49.78, -0.05 23.31, 0.39 0.16" stroke="#000000" stroke-width="1" fill="none"></path></g><g stroke-linecap="round"><g transform="translate(390.059666186869 480) rotate(0 -0.11767080411317465 36.56169508881868)"><path d="M0.77 -0.55 C0.68 11.81, -1.13 61.58, -1.17 73.67 M-0.29 1.78 C0.03 13.83, 0.88 60.07, 0.93 71.9" stroke="#000000" stroke-width="1" fill="none"></path></g></g><mask></mask><g stroke-linecap="round"><g transform="translate(446.05966618686887 480) rotate(0 0.41642161728719884 35.68363236598671)"><path d="M-0.55 -1.17 C-0.36 10.79, 0.75 60.26, 0.67 72.53 M1.37 0.83 C1.5 12.37, 0.08 59.1, 0.07 70.69" stroke="#000000" stroke-width="1" fill="none"></path></g></g><mask></mask><g stroke-linecap="round"><g transform="translate(331.0596661868692 517) rotate(0 87.18363236598668 -0.18206145577130428)"><path d="M-1.17 0.67 C27.96 0.59, 146.09 -0.79, 175.53 -1.03 M0.42 -0.03 C29.37 0.05, 145.77 -0.06, 174.87 -0.04" stroke="#000000" stroke-width="1" fill="none"></path></g></g><mask></mask><g stroke-linecap="round" transform="translate(235 266.5) rotate(0 54.5 50)"><path d="M68.75 12.75 M68.75 12.75 C77.42 21.92, 89.19 30.44, 95.25 38.25 M68.75 12.75 C77.47 20.68, 85.41 30.18, 95.25 38.25 M95.25 38.25 C108.39 52.56, 107.64 51.21, 95.25 63.75 M95.25 38.25 C106.78 49.6, 107.35 49.52, 95.25 63.75 M95.25 63.75 C85.29 73.17, 80.03 80.99, 68.75 87.25 M95.25 63.75 C89.82 68.18, 83.75 74.19, 68.75 87.25 M68.75 87.25 C53.79 100.1, 55.94 101.65, 41.25 87.25 M68.75 87.25 C55.2 101.2, 55.51 100.56, 41.25 87.25 M41.25 87.25 C34.6 82.22, 29.2 77.19, 13.75 63.75 M41.25 87.25 C35.99 81.66, 28.8 77.07, 13.75 63.75 M13.75 63.75 C0.02 50.83, -1.2 52.95, 13.75 38.25 M13.75 63.75 C-1.15 52.93, 1.82 49.92, 13.75 38.25 M13.75 38.25 C21.82 29.76, 31.9 22.18, 41.25 12.75 M13.75 38.25 C24.21 28.99, 32.69 20.82, 41.25 12.75 M41.25 12.75 C53.92 -0.24, 53.45 0.83, 68.75 12.75 M41.25 12.75 C53.26 -1.39, 56.08 -1.61, 68.75 12.75" stroke="#343a40" stroke-width="2" fill="none"></path></g><g transform="translate(268.3179473876953 306.5) rotate(0 21.432052612304688 10)"><text x="21.432052612304688" y="0" font-family="Virgil, Segoe UI Emoji" font-size="16px" fill="#343a40" text-anchor="middle" style="white-space: pre;" direction="ltr" dominant-baseline="text-before-edge">Data</text></g><g stroke-linecap="round"><g transform="translate(155.04061124958093 227.27028579456567) rotate(0 42.93467517085372 44.205172280594724)"><path d="M0.8 -0.23 C15.11 14.59, 70.95 73.84, 85.06 88.64" stroke="#343a40" stroke-width="2.5" fill="none" stroke-dasharray="1.5 8"></path></g></g><mask></mask><g stroke-linecap="round"><g transform="translate(314 220) rotate(0 52.17546591348946 84.21511004976928)"><path d="M0.06 -0.41 C14.13 13.83, 67.1 56.59, 84.47 84.79 C101.84 113, 100.89 154.57, 104.29 168.84" stroke="#343a40" stroke-width="2.5" fill="none" stroke-dasharray="1.5 8"></path></g></g><mask></mask><g stroke-linecap="round"><g transform="translate(417 392) rotate(0 1.1530474226922252 43.8778727348149)"><path d="M-0.28 0.95 C-0.01 15.57, 2.01 73.07, 2.59 87.36 M1.77 0.4 C1.76 14.68, 1.3 70.85, 1.42 85.42" stroke="#343a40" stroke-width="2" fill="none"></path></g></g><mask></mask><g transform="translate(11.5 525.25) rotate(0 49.60010528564453 13)"><text x="0" y="0" font-family="Virgil, Segoe UI Emoji" font-size="16px" fill="#000000" text-anchor="start" style="white-space: pre;" direction="ltr" dominant-baseline="text-before-edge">NAS Externe</text></g><g stroke-linecap="round" transform="translate(10 475.75) rotate(0 51 23.5)"><path d="M-1.75 0.67 C39.51 2.59, 75.54 0.21, 102.09 -0.5 M0.73 0.96 C38.86 -0.03, 79.09 0.81, 102.66 -0.05 M100.91 0.32 C102.61 14.28, 100.14 24.52, 101.62 47.65 M102.89 0.09 C101.44 16.48, 101.69 33.49, 101.99 47.16 M100.84 46.7 C64.43 45.49, 23.92 44.71, 1.98 45.7 M101.89 46.77 C81.75 48.32, 59.57 48.24, -0.6 47.55 M1.53 45.37 C-1.26 32.21, 2.35 20.1, 1.66 0.46 M0.12 46.66 C-0.32 31.4, 0.16 16.09, 0.58 -0.89" stroke="#000000" stroke-width="1" fill="none"></path></g><g stroke-linecap="round" transform="translate(75.25 489.5) rotate(270 19.5 10.25)"><path d="M0.61 0.87 L40.9 -0.55 L38.08 21.56 L1.81 18.78" stroke="none" stroke-width="0" fill="#ced4da"></path><path d="M0.67 0.95 C12.89 -1.23, 21.79 0.43, 38.5 1.68 M0.96 -0.32 C10.23 0.44, 21.99 0.37, 38.95 -0.2 M39.32 0.77 C40.06 3.77, 37.13 10.56, 39.65 21.48 M39.09 -0.56 C38.89 5.86, 39.5 12.34, 39.16 21.29 M38.7 21.57 C25.8 19.47, 12.72 22.25, -1.3 18.59 M38.77 21.13 C25.5 19.79, 11.44 19.86, 0.55 20.47 M-1.63 18.88 C-0.77 17.9, 1.06 12.99, 0.46 0.48 M-0.34 20.41 C-0.24 13.73, -0.34 6.77, -0.89 -0.2" stroke="#000000" stroke-width="1" fill="none"></path></g><g stroke-linecap="round" transform="translate(40.75 488.5) rotate(270 19.5 10.25)"><path d="M0.87 1.9 L38.45 -0.92 L40.06 22.31 L-1.72 22.41" stroke="none" stroke-width="0" fill="#ced4da"></path><path d="M0.95 1.61 C6.38 -0.9, 15.98 -0.63, 40.68 -0.4 M-0.32 -0.69 C9.92 -0.22, 19.05 -0.42, 38.8 -0.33 M39.77 1.11 C37.19 3.81, 38.51 11.9, 39.98 20.52 M38.44 0.08 C38.87 5, 39.17 8.8, 39.79 20.65 M40.07 19.59 C28.79 18.75, 22.17 19.14, -1.91 21.67 M39.63 20.98 C23.43 20.81, 8.6 20.96, -0.03 19.74 M-1.62 19.65 C1.83 16.13, 1.5 10.26, 0.48 0.98 M-0.09 20.13 C0.36 15.19, 0.56 9.94, -0.2 0.3" stroke="#000000" stroke-width="1" fill="none"></path></g><g stroke-linecap="round" transform="translate(7.75 489.5) rotate(270 19.5 10.25)"><path d="M1.9 -0.55 L38.08 1.06 L40.81 18.78 L1.91 20.55" stroke="none" stroke-width="0" fill="#ced4da"></path><path d="M1.61 -1.57 C7.51 -0.09, 16.06 1.5, 38.6 -1.28 M-0.69 0.72 C14.71 0.78, 29.07 -0.07, 38.67 -0.25 M40.11 -1.7 C37.22 4.66, 39.68 11.06, 39.02 18.72 M39.08 -0.31 C39.7 7.96, 39.17 16.72, 39.15 19.91 M38.09 19.7 C27.86 22.68, 18.81 18.8, 1.17 22.14 M39.48 19.83 C28.15 20.15, 17.04 20.71, -0.76 20.11 M-0.85 22.49 C1.14 14.44, 0.63 5.53, 0.98 -1.28 M-0.37 20.89 C-0.4 14.69, -0.81 7.51, 0.3 0.44" stroke="#000000" stroke-width="1" fill="none"></path></g><g stroke-linecap="round"><g transform="translate(316 343) rotate(0 14.402180882170796 23.67336326651275)"><path d="M0.12 1.1 C3.58 4.49, 15.13 12.94, 19.89 20.46 C24.65 27.99, 27.04 41.78, 28.68 46.25" stroke="#343a40" stroke-width="2.5" fill="none" stroke-dasharray="1.5 8"></path></g></g><mask></mask><g stroke-linecap="round"><g transform="translate(85 234) rotate(0 -30.073323559910023 121.48635723792016)"><path d="M0.27 0.54 C-7.55 20.1, -37.93 77.59, -47.93 117.82 C-57.94 158.05, -57.8 221.17, -59.77 241.92 M-1.05 -0.23 C-8.93 19.48, -38.95 78.69, -48.85 119.26 C-58.74 159.83, -58.66 222.47, -60.42 243.2" stroke="#343a40" stroke-width="2" fill="none"></path></g></g><mask></mask><g stroke-linecap="round"><g transform="translate(344.8469525773078 392.12212726518516) rotate(0 0.7079974995553471 43.29273740239444)"><path d="M-0.02 -1.15 C0.28 13.59, 2.51 73.23, 2.91 87.74 M-1.49 0.86 C-1.45 15.32, 1.45 71.71, 1.91 86" stroke="#343a40" stroke-width="2" fill="none"></path></g></g><mask></mask></svg>