<svg width="46" height="42" viewBox="0 0 46 42" fill="none" xmlns="http://www.w3.org/2000/svg">
<path d="M32.8313 4.84643C32.8315 4.57992 32.7648 4.3175 32.6372 4.08241C32.4154 3.71473 32.102 3.40871 31.7267 3.19325C30.9774 2.77016 30.1703 2.4552 29.3299 2.258C27.5021 1.81162 25.6422 1.50334 23.7666 1.33589C21.5707 1.11854 19.0802 1 16.4023 1C12.6927 0.961864 8.98703 1.24839 5.32906 1.85622C4.11921 2.04833 2.93553 2.37537 1.8009 2.83101C1.37587 3.00423 0.982413 3.24449 0.636005 3.54232C0.459154 3.69687 0.309813 3.87941 0.19415 4.08241C0.0665494 4.3175 -0.000137445 4.57992 2.12687e-07 4.84643V37.5213C-0.000137445 37.7878 0.0665494 38.0502 0.19415 38.2853C0.415211 38.6513 0.725931 38.957 1.09795 39.1744C1.85016 39.5963 2.65935 39.9112 3.50138 40.1097C5.32788 40.5625 7.18828 40.8709 9.06477 41.0318C11.2607 41.2491 13.7511 41.3677 16.4291 41.3677C18.0291 41.3677 19.5689 41.3282 21.0217 41.2426L20.9012 39.2667C19.4886 39.3457 17.9889 39.3852 16.4291 39.3852C12.841 39.4227 9.25665 39.1494 5.71736 38.5685C4.66332 38.3958 3.63095 38.1133 2.63775 37.7255C2.41816 37.6396 2.21283 37.5219 2.02853 37.3764V31.205C2.51402 31.4032 3.01285 31.5683 3.52146 31.699C5.34689 32.1434 7.20474 32.4473 9.07815 32.6079C11.274 32.8252 13.7645 32.9504 16.4424 32.9504C18.2099 32.9504 19.9037 32.8977 21.4903 32.7989L21.3564 30.823C19.8166 30.9218 18.163 30.9745 16.4424 30.9745C12.8544 31.012 9.27004 30.7387 5.73075 30.1578C4.6767 29.9851 3.64435 29.7025 2.65114 29.3147C2.43288 29.2261 2.22792 29.1087 2.04191 28.9656V23.1235C2.52763 23.3194 3.02645 23.4823 3.53486 23.6109C5.36136 24.0637 7.22175 24.3721 9.09824 24.533C11.2941 24.7504 13.7846 24.8755 16.4625 24.8755C20.1534 24.9191 23.841 24.6414 27.4822 24.0456C28.6904 23.8464 29.8733 23.5196 31.0103 23.0709C31.4356 22.8953 31.8291 22.6528 32.1752 22.3529C32.3534 22.2013 32.501 22.0181 32.6104 21.8128C32.74 21.5806 32.809 21.3204 32.8112 21.0554V4.9979C32.8212 4.94788 32.8279 4.89729 32.8313 4.84643ZM27.114 3.79261C28.1661 3.96415 29.1963 4.2468 30.1869 4.63566C30.3345 4.69849 30.4777 4.7711 30.6153 4.853L30.5216 4.9057C29.8951 5.2029 29.2341 5.42407 28.5533 5.56434C25.8754 6.22297 21.4301 6.6906 16.4291 6.6906C12.8407 6.72924 9.25604 6.45372 5.71736 5.8673C4.6649 5.70055 3.63435 5.42004 2.64445 5.03084C2.50057 4.97164 2.36177 4.90115 2.22937 4.82008L2.32979 4.7608C2.95633 4.4636 3.61727 4.24244 4.29806 4.10217C6.97599 3.44353 11.4146 2.97591 16.4157 2.97591C19.9992 2.93873 23.5791 3.21202 27.114 3.79261ZM2.00844 6.93429C2.50286 7.12887 3.008 7.29599 3.52146 7.43486C5.3489 7.88189 7.20901 8.188 9.08485 8.35037C11.2807 8.56772 13.7712 8.69285 16.4491 8.69285C20.1587 8.73099 23.8644 8.44446 27.5223 7.83663C28.6432 7.63588 29.7417 7.32928 30.8028 6.92112V12.7698C30.7096 12.8458 30.6087 12.912 30.5015 12.9674C29.8745 13.2635 29.2137 13.4846 28.5333 13.626C24.549 14.4774 20.4791 14.8795 16.4023 14.8247C12.8143 14.8622 9.22987 14.589 5.69058 14.008C4.63654 13.8354 3.60417 13.5528 2.61097 13.165C2.39271 13.0764 2.18775 12.959 2.00175 12.8159L2.00844 6.93429ZM28.5333 21.7733C24.5451 22.5937 20.476 22.9715 16.4023 22.8996C12.8273 22.9308 9.25637 22.6531 5.73075 22.0697C4.67706 21.8987 3.64476 21.6183 2.65114 21.2332C2.43087 21.1458 2.22543 21.0259 2.04191 20.8776V15.0223C2.52741 15.2206 3.02625 15.3856 3.53486 15.5163C5.36207 15.9658 7.22219 16.2741 9.09824 16.4384C11.2941 16.6557 13.7846 16.7743 16.4625 16.7743C20.174 16.8112 23.8816 16.5269 27.5424 15.9246C28.6862 15.7354 29.8077 15.4331 30.8898 15.0223V20.8776C30.7973 20.9562 30.6962 21.0247 30.5886 21.0818C29.9342 21.3926 29.2441 21.6248 28.5333 21.7733Z" fill="#99B7D1"/>
<path d="M45.4513 34.1359C44.588 32.9948 43.6027 31.9482 42.5123 31.014C41.5287 30.1561 40.4375 29.4257 39.2653 28.8405C37.9619 28.1789 36.5207 27.8228 35.0543 27.7999C33.5856 27.822 32.142 28.1782 30.8365 28.8405C29.1727 29.687 27.6636 30.7999 26.3711 32.1337C25.7537 32.7541 25.1789 33.4142 24.6505 34.1096L24.1016 34.8736L24.6505 35.631C25.5138 36.7721 26.4992 37.8188 27.5896 38.753C28.5731 39.6128 29.6642 40.3454 30.8365 40.933C32.1431 41.5925 33.586 41.9485 35.0543 41.9737C36.5203 41.9477 37.9608 41.5917 39.2653 40.933C40.9277 40.0843 42.4364 38.9717 43.7307 37.6399C44.3471 37.0186 44.9219 36.3586 45.4513 35.664L46.0003 34.9065L45.4513 34.1359ZM40.6779 36.8561C39.8641 37.5527 38.9644 38.1458 38 38.6212C37.0771 39.0882 36.0583 39.3427 35.0208 39.3655C33.9632 39.3407 32.9256 39.077 31.988 38.5949C30.5983 37.8734 29.3386 36.9322 28.259 35.8088C27.931 35.4729 27.6498 35.1502 27.4222 34.8999C28.0228 34.1899 28.681 33.5291 29.3905 32.924C30.2028 32.2273 31.1028 31.6363 32.0684 31.1655C32.9936 30.6984 34.0146 30.444 35.0543 30.4212C36.1091 30.4445 37.1444 30.706 38.0803 31.1853C39.47 31.9068 40.7298 32.848 41.8093 33.9713C42.1374 34.3138 42.4185 34.6299 42.6462 34.8868C42.0435 35.5929 41.3854 36.2513 40.6779 36.8561Z" fill="#EB5050"/>
<path d="M35.054 32.2261C34.3331 32.2261 33.6418 32.5078 33.132 33.0093C32.6223 33.5108 32.3359 34.1909 32.3359 34.9001C32.3359 35.2495 32.4065 35.5953 32.5436 35.9175C32.6806 36.2398 32.8815 36.532 33.1344 36.7771C33.3874 37.0223 33.6873 37.2156 34.0169 37.3456C34.3464 37.4757 34.699 37.5399 35.054 37.5347C35.7643 37.5347 36.4454 37.2571 36.9476 36.763C37.4498 36.269 37.732 35.5989 37.732 34.9001C37.7338 34.1972 37.4535 33.522 36.952 33.0213C36.4506 32.5205 35.7685 32.2348 35.054 32.2261ZM35.054 34.9331H35.0139L35.054 34.8935V34.9331Z" fill="#EB5050"/>
</svg>
