<svg width="60" height="60" viewBox="0 0 60 60" fill="none" xmlns="http://www.w3.org/2000/svg">
<path d="M30.4921 51.3914C26.5128 51.391 22.6128 50.2793 19.2315 48.1814C15.8502 46.0836 13.122 43.083 11.3544 39.5179L8.31543 41.0205C10.3622 45.153 13.5232 48.6311 17.4418 51.0625C21.3603 53.4939 25.8805 54.7817 30.4921 54.7806V51.3914Z" fill="#B2C5D1"/>
<path d="M51.8439 30.0057C51.8448 33.6871 50.8933 37.3061 49.082 40.5111C47.2707 43.716 44.6611 46.3979 41.5068 48.2961L43.2579 51.1995C46.913 49.0004 49.9368 45.8928 52.0353 42.179C54.1337 38.4651 55.2354 34.2714 55.2331 30.0057H51.8439Z" fill="#B2C5D1"/>
<path d="M30.4922 8.65397C34.386 8.65348 38.206 9.71722 41.5391 11.7302C44.8723 13.7433 47.5918 16.6291 49.4039 20.0756L52.3977 18.4939C50.3 14.5008 47.1502 11.1574 43.2891 8.82566C39.428 6.49388 35.0028 5.26248 30.4922 5.26477V8.65397Z" fill="#B2C5D1"/>
<path d="M9.13919 30.0056C9.13854 25.8673 10.3405 21.8179 12.5989 18.35C14.8573 14.8822 18.0748 12.1455 21.8599 10.4726L20.493 7.36584C16.1124 9.30111 12.3877 12.4661 9.77074 16.4768C7.15376 20.4875 5.75704 25.1715 5.75 29.9605L9.13919 30.0056Z" fill="#B2C5D1"/>
<path d="M60 27.7462H42.7716C42.3047 25.173 41.0378 22.8126 39.1514 21.0012C37.265 19.1899 34.8552 18.0199 32.2651 17.6577V0H27.7462V17.8271C25.3567 18.3577 23.177 19.5821 21.4807 21.3467C19.7845 23.1113 18.6471 25.3376 18.2113 27.7462H0V32.2651H18.2113C18.6567 34.6696 19.7974 36.8907 21.4921 38.6537C23.1868 40.4167 25.3612 41.6441 27.7462 42.1841V60H32.2651V42.3536C34.8513 41.9817 37.2558 40.8083 39.1404 38.9987C41.0251 37.189 42.295 34.8341 42.7716 32.2651H60V27.7462ZM36.1288 35.6543C35.3877 36.3969 34.5071 36.9858 33.5378 37.3871C32.5684 37.7884 31.5293 37.9943 30.4801 37.9929C29.4311 37.9931 28.3924 37.7866 27.4232 37.3854C26.454 36.9841 25.5733 36.3959 24.8315 35.6543C23.3358 34.1547 22.4949 32.1237 22.4929 30.0057C22.4915 28.9565 22.6973 27.9174 23.0986 26.948C23.5 25.9786 24.0888 25.0981 24.8315 24.357C25.5707 23.6118 26.4509 23.0213 27.4207 22.6198C28.3905 22.2183 29.4305 22.0139 30.4801 22.0184C31.5297 22.0139 32.5698 22.2183 33.5396 22.6198C34.5094 23.0213 35.3895 23.6118 36.1288 24.357C36.8739 25.0962 37.4645 25.9764 37.866 26.9462C38.2675 27.916 38.4719 28.956 38.4673 30.0057C38.4704 31.0534 38.2652 32.0913 37.8638 33.059C37.4623 34.0268 36.8726 34.9051 36.1288 35.643V35.6543Z" fill="#EB5050"/>
</svg>
