<svg width="75" height="59" viewBox="0 0 75 59" fill="none" xmlns="http://www.w3.org/2000/svg">
<g clip-path="url(#clip0_14_7601)">
<path d="M19.02 0V17.08C13.8583 17.4611 9.03157 19.7795 5.50775 23.5704C1.98393 27.3613 0.0236382 32.3443 0.0200195 37.52C0.0200195 40.2147 0.550774 42.8831 1.582 45.3727C2.61323 47.8623 4.12472 50.1243 6.03018 52.0298C7.93564 53.9352 10.1977 55.4468 12.6873 56.478C15.1769 57.5093 17.8453 58.04 20.54 58.04C25.7147 58.0362 30.6965 56.0755 34.4858 52.5515C38.275 49.0275 40.5914 44.2009 40.97 39.04H43.49V36.04H40.97C40.6135 31.1366 38.5048 26.5249 35.0293 23.0475C31.5538 19.5702 26.9433 17.4592 22.04 17.1V3H55.04V21H58.04V0H19.02ZM32.9 25.14C34.5292 26.7634 35.8211 28.6929 36.7016 30.8176C37.582 32.9423 38.0335 35.2201 38.03 37.52C38.0326 39.8213 37.5807 42.1003 36.7004 44.2265C35.8201 46.3527 34.5286 48.2842 32.9 49.91C31.2766 51.5392 29.3471 52.8311 27.2224 53.7115C25.0977 54.592 22.8199 55.0435 20.52 55.04C18.2188 55.0426 15.9397 54.5908 13.8135 53.7104C11.6873 52.8301 9.75589 51.5386 8.13002 49.91C6.50146 48.2842 5.20995 46.3527 4.32962 44.2265C3.44929 42.1003 2.99744 39.8213 3.00002 37.52C2.99657 35.2201 3.44805 32.9423 4.32848 30.8176C5.2089 28.6929 6.50087 26.7634 8.13002 25.14C9.75589 23.5115 11.6873 22.2199 13.8135 21.3396C15.9397 20.4593 18.2188 20.0074 20.52 20.01C21.1178 20.0098 21.7152 20.0399 22.31 20.1C26.316 20.5071 30.0577 22.2879 32.9 25.14Z" fill="#B2C5D1"/>
<path d="M74.2701 39.8599C74.0304 39.4445 73.6854 39.0996 73.2701 38.8599L52.2701 26.4199C51.8637 26.1809 51.4015 26.0533 50.9301 26.0499C50.2398 26.0524 49.5771 26.321 49.0801 26.7999C48.8296 27.0468 48.6307 27.341 48.4951 27.6655C48.3594 27.99 48.2897 28.3382 48.2901 28.6899C48.2892 28.9685 48.3331 29.2453 48.4201 29.5099L55.9601 52.7499C56.1356 53.3032 56.4867 53.7841 56.9601 54.1199C57.3977 54.4227 57.9179 54.5833 58.4501 54.5799C59.0064 54.5801 59.5487 54.4051 60.0001 54.0799C60.4959 53.7141 60.8494 53.1874 61.0001 52.5899L63.1701 44.02L72.0101 43.77C72.3686 43.761 72.7216 43.6783 73.0467 43.5269C73.3719 43.3754 73.6624 43.1586 73.9001 42.89C74.3355 42.4076 74.5745 41.7797 74.5701 41.1299C74.5758 40.6884 74.4728 40.2522 74.2701 39.8599ZM50.9101 28.6899L50.3101 28.89L50.9101 28.6899ZM59.5701 42.04L58.3001 47.04L53.3001 31.7L67.1801 39.91L62.0301 40.0499C61.4675 40.0813 60.9296 40.2911 60.4945 40.649C60.0593 41.0068 59.7495 41.4941 59.6101 42.04H59.5701Z" fill="#EB5050"/>
</g>
<defs>
<clipPath id="clip0_14_7601">
<rect width="74.59" height="58.04" fill="white"/>
</clipPath>
</defs>
</svg>
