<svg width="63" height="50" viewBox="0 0 63 50" fill="none" xmlns="http://www.w3.org/2000/svg">
<path d="M62.0201 37.88C60.7395 36.1432 59.2706 34.5536 57.6401 33.14C56.169 31.8401 54.5394 30.7312 52.7901 29.84C50.8398 28.8354 48.6838 28.2947 46.4901 28.26C44.2967 28.2961 42.141 28.8367 40.1902 29.84C37.7062 31.1225 35.455 32.8127 33.5302 34.84C32.601 35.7755 31.742 36.7782 30.9601 37.84L30.1401 39L30.9601 40.16C32.2544 41.8855 33.7257 43.4709 35.3501 44.89C36.8173 46.1932 38.4436 47.3054 40.1902 48.2C42.1427 49.1989 44.2973 49.7393 46.4901 49.78C48.6831 49.7403 50.838 49.1999 52.7901 48.2C55.272 46.9141 57.5227 45.2244 59.4501 43.2C60.3737 42.2593 61.2323 41.257 62.0201 40.2L62.8401 39.04L62.0201 37.88ZM54.9001 42.02C53.6973 43.0678 52.3708 43.9644 50.9501 44.69C49.5681 45.3991 48.0431 45.7855 46.4901 45.82C44.9138 45.7811 43.3674 45.3808 41.9702 44.65C39.8944 43.5545 38.0126 42.1255 36.4001 40.42C35.9001 39.91 35.4801 39.42 35.1501 39.04C36.0472 37.962 37.0305 36.9587 38.0901 36.04C39.2862 34.9834 40.6139 34.086 42.0401 33.37C43.4187 32.661 44.9404 32.2746 46.4901 32.24C48.0706 32.2726 49.6216 32.6732 51.0201 33.41C53.0959 34.4966 54.9752 35.923 56.5801 37.63C57.0801 38.15 57.5001 38.63 57.8401 39.02C56.9287 40.0915 55.9393 41.0943 54.8801 42.02H54.9001Z" fill="#EB5050"/>
<path d="M46.4698 35.8301C45.6184 35.8301 44.8019 36.1683 44.2 36.7703C43.598 37.3723 43.2598 38.1887 43.2598 39.04C43.2598 39.8914 43.598 40.7079 44.2 41.3099C44.8019 41.9119 45.6184 42.2501 46.4698 42.2501C47.3221 42.2501 48.1396 41.9122 48.7431 41.3105C49.3467 40.7088 49.6871 39.8923 49.6898 39.04C49.6871 38.1878 49.3467 37.3714 48.7431 36.7697C48.1396 36.1679 47.3221 35.8301 46.4698 35.8301ZM46.4698 39.0801H46.5198H46.4698Z" fill="#EB5050"/>
<path d="M24.02 0C17.6548 0 11.5503 2.52855 7.04947 7.02942C2.5486 11.5303 0.0200195 17.6348 0.0200195 24C0.0200195 30.3652 2.5486 36.4697 7.04947 40.9706C11.5503 45.4715 17.6548 48 24.02 48V45C21.2638 45.0057 18.5336 44.4661 15.9867 43.4123C13.4398 42.3585 11.1265 40.8114 9.18002 38.86C7.22466 36.9071 5.67398 34.5874 4.61691 32.0339C3.55985 29.4805 3.01719 26.7436 3.02002 23.98C3.02227 18.4137 5.23429 13.0761 9.17001 9.14001C11.1177 7.1874 13.4326 5.63955 15.9813 4.58575C18.53 3.53195 21.2621 2.99302 24.02 3C26.7761 2.99544 29.5059 3.53553 32.0527 4.58923C34.5994 5.64293 36.9128 7.18948 38.86 9.14001C40.8151 11.0849 42.3659 13.3974 43.4231 15.9444C44.4803 18.4914 45.0231 21.2223 45.02 23.98H48.02C48.0147 17.6183 45.4838 11.5189 40.9835 7.02234C36.4832 2.52579 30.3818 -2.20893e-06 24.02 0Z" fill="#B2C5D1"/>
<path d="M25.48 5.72998H22.48V11.27H25.48V5.72998Z" fill="#B2C5D1"/>
<path d="M25.48 36.3101H22.48V41.8501H25.48V36.3101Z" fill="#B2C5D1"/>
<path d="M11.4599 22.3H5.91992V25.3H11.4599V22.3Z" fill="#B2C5D1"/>
<path d="M42.04 22.3H36.5V25.3H42.04V22.3Z" fill="#B2C5D1"/>
<path d="M28.2299 15.29L23.6699 21.81L13.3199 13.45L11.4399 15.78L24.2899 26.16L30.6899 17L28.2299 15.29Z" fill="#B2C5D1"/>
</svg>
