<svg enable-background="new 0 0 66 66" viewBox="0 0 66 66" xmlns="http://www.w3.org/2000/svg"><circle cx="33" cy="33" fill="#d7e4ef" r="20"/><path d="m33.6 66v-2c1.3 0 2.6-.1 3.9-.3l.3 2c-1.5.2-2.8.3-4.2.3zm-4.1-.2c-1.4-.1-2.7-.4-4.1-.7l.5-1.9c1.2.3 2.5.5 3.8.6zm12.2-1-.5-1.9c1.2-.3 2.5-.8 3.7-1.3l.8 1.8c-1.3.6-2.6 1.1-4 1.4zm-20.2-.9c-1.3-.5-2.5-1-3.8-1.7l.9-1.8c1.1.6 2.3 1.1 3.5 1.6zm27.8-2.2-1-1.7c1.1-.6 2.2-1.4 3.2-2.1l1.2 1.6c-1 .7-2.2 1.5-3.4 2.2zm-35.1-1.6c-1.1-.8-2.2-1.6-3.2-2.6l1.3-1.5c1 .9 2 1.7 3 2.4zm41.7-3.3-1.4-1.4c.9-.9 1.8-1.9 2.6-2.9l1.6 1.3c-.9 1-1.8 2-2.8 3zm-47.8-2.2c-.9-1-1.7-2.1-2.5-3.3l1.7-1.1c.7 1.1 1.5 2.1 2.3 3.1zm53-4.3-1.7-1.1c.7-1.1 1.3-2.2 1.8-3.4l1.8.8c-.5 1.4-1.2 2.6-1.9 3.7zm-57.6-2.5c-.6-1.2-1.2-2.5-1.6-3.8l1.9-.7c.4 1.2.9 2.4 1.5 3.6zm61-4.9-1.9-.6c.4-1.2.7-2.5.9-3.8l2 .4c-.3 1.3-.6 2.7-1 4zm-63.8-2.9c-.3-1.3-.5-2.7-.6-4.1l2-.2c.1 1.3.3 2.6.6 3.8zm65.3-5.2-2-.1c0-.6 0-1.1 0-1.7 0-.7 0-1.5-.1-2.2l2-.1c.1.7.1 1.5.1 2.3zm-64-2.9-2-.1c0-1.4.2-2.8.4-4.1l2 .3c-.2 1.3-.3 2.6-.4 3.9zm61.4-4.9c-.2-1.3-.6-2.5-1-3.7l1.9-.6c.4 1.3.8 2.6 1.1 4zm-60.2-2.7-1.9-.6c.4-1.3.9-2.6 1.4-3.9l1.8.8c-.4 1.2-.9 2.4-1.3 3.7zm57.8-4.7c-.6-1.2-1.2-2.3-1.9-3.4l1.7-1.1c.7 1.2 1.4 2.4 2 3.6zm-54.7-2.4-1.7-1c.7-1.2 1.5-2.3 2.3-3.4l1.6 1.2c-.8 1-1.5 2.1-2.2 3.2zm50.5-4.1c-.8-1-1.7-1.9-2.7-2.8l1.4-1.5c1 .9 2 1.9 2.8 3zm-45.7-2-1.4-1.4c1-1 2-1.9 3.1-2.7l1.2 1.5c-1 .8-2 1.7-2.9 2.6zm40-3.2c-1-.8-2.1-1.4-3.3-2.1l1-1.8c1.2.7 2.4 1.4 3.5 2.2zm-33.9-1.6-1-1.7c1.2-.7 2.4-1.3 3.7-1.9l.8 1.8c-1.2.6-2.4 1.2-3.5 1.8zm27.2-2.2c-1.2-.5-2.4-.9-3.7-1.2l.5-1.9c1.3.3 2.7.8 3.9 1.3zm-20.1-.9-.6-1.9c1.3-.4 2.7-.7 4-.9l.3 2c-1.2.2-2.5.5-3.7.8zm12.6-1c-1.7-.2-3.3-.2-5-.2l-.1-2c1.8-.1 3.5 0 5.3.2z" fill="#d7e4ef"/><circle cx="33" cy="33" fill="#eb5050" r="7"/></svg>