<svg width="73" height="59" viewBox="0 0 73 59" fill="none" xmlns="http://www.w3.org/2000/svg">
<path d="M55.27 12.51L42.2 8.15L30.99 0H30.5H25.5V5.96L21.71 10.5L16.45 7H16H15.81L9.88 8.48L12.47 14.11L1.61 12.5H1.5H0V20.47L10.4 25.15L14.88 34.12L10.5 47.77V48V49.16L34.5 55.44V50.14L35.84 48.8L33.72 46.68L31.5 48.89V51.56L13.91 46.95L18.11 33.88L17.84 33.33L12.73 23.11L12.56 22.94L12.37 22.75L3 18.53V15.74L15.86 17.64L16.66 16.03L14.12 10.52L15.72 10.12L21.89 14.23L22.67 13.84L22.95 13.7L28.5 7.04V3H30.01L40.8 10.85L51.73 14.49L50.09 21.44L53.01 22.12L55.27 12.51Z" fill="#B2C5D1"/>
<path d="M72.9896 44.2601L66.8596 36.1301L72.8596 28.0201H59.2396V23.8701H37.5596L40.1595 36.5201L44.0796 58.3401L48.0196 57.6301L44.5096 38.1401H51.5096V44.2601H72.9896ZM64.9196 32.0101L61.9196 36.1401L65.0096 40.2501H55.5496V38.1301H59.2496V32.0101H64.9196ZM42.6296 27.8601H55.2396V34.1301H43.7896L42.6296 27.8601Z" fill="#EB5050"/>
</svg>
