<svg id="Calque_1" data-name="Calque 1" xmlns="http://www.w3.org/2000/svg" viewBox="0 0 200 80"><defs><style>.cls-1{fill:#eb5050;}</style></defs><path class="cls-1" d="M46.31,46.08h5.51A2.48,2.48,0,0,0,54,43.74V35.85a1.91,1.91,0,0,0-3.82,0v5a1.45,1.45,0,0,1-1.44,1.42h-2.5a1.89,1.89,0,0,0-1.9,1.92A1.92,1.92,0,0,0,46.31,46.08Z"/><path class="cls-1" d="M48.79,28.07H43.28a2.48,2.48,0,0,0-2.19,2.35V38.3a1.91,1.91,0,0,0,3.82,0v-5a1.42,1.42,0,0,1,1.43-1.42h2.5a2,2,0,0,0,1.36-.57,1.87,1.87,0,0,0,.55-1.36A1.94,1.94,0,0,0,48.79,28.07Z"/><path class="cls-1" d="M49.72,24.26a8.09,8.09,0,0,1,8.11,8.06V47.81a2.48,2.48,0,0,1-2.15,2H45.31a8.1,8.1,0,0,1-8.12-8.06v-15a2.51,2.51,0,0,1,2.52-2.49Zm0-3.79h-10a6.31,6.31,0,0,0-6.34,6.28v15A11.9,11.9,0,0,0,45.31,53.65H55.89a6.32,6.32,0,0,0,5.78-5.59V32.32a11.81,11.81,0,0,0-3.5-8.39A12,12,0,0,0,49.72,20.47Z"/><path class="cls-1" d="M76.31,46.3a8.11,8.11,0,0,1-3.76-1,8.87,8.87,0,0,1-3-2.58.65.65,0,0,1,.1-.88l1.45-1.27a.62.62,0,0,1,.43-.16h.1a.62.62,0,0,1,.45.29,5.9,5.9,0,0,0,2,1.93,4.9,4.9,0,0,0,2.54.7,3.27,3.27,0,0,0,2.14-.59,1.82,1.82,0,0,0,.65-1.52,1.93,1.93,0,0,0-.69-1.63,8,8,0,0,0-2.74-1.19c-3.73-.91-5.62-2.67-5.62-5.25a4.56,4.56,0,0,1,1.61-3.74,6.41,6.41,0,0,1,4.24-1.28,8.18,8.18,0,0,1,3.48.73,7.79,7.79,0,0,1,2.76,2.2.65.65,0,0,1-.08.91l-1.41,1.18a.62.62,0,0,1-.42.15h-.07a.67.67,0,0,1-.46-.26,5.06,5.06,0,0,0-1.66-1.53,4.41,4.41,0,0,0-2.14-.47,3.36,3.36,0,0,0-2.06.57A1.59,1.59,0,0,0,73.42,33a1.76,1.76,0,0,0,.64,1.45,7.11,7.11,0,0,0,2.71,1.08,10.57,10.57,0,0,1,4.11,2,5,5,0,0,1,.81,6.4,5.07,5.07,0,0,1-2.19,1.78A7.91,7.91,0,0,1,76.31,46.3Z"/><path class="cls-1" d="M90.22,46.37A6.28,6.28,0,0,1,87,45.52a5.91,5.91,0,0,1-2.21-2.36A6.94,6.94,0,0,1,84,39.82a7.22,7.22,0,0,1,.77-3.35A5.9,5.9,0,0,1,87,34.12a6.15,6.15,0,0,1,3.19-.85,5.48,5.48,0,0,1,2.69.67,7.06,7.06,0,0,1,2,1.78.66.66,0,0,1-.11.92l-1.19.92a.64.64,0,0,1-.4.13.17.17,0,0,1-.1,0,.63.63,0,0,1-.44-.26A2.9,2.9,0,0,0,90.18,36a3,3,0,0,0-1.66.47,3.16,3.16,0,0,0-1.15,1.31,4.82,4.82,0,0,0,0,4,3.18,3.18,0,0,0,1.15,1.34,3,3,0,0,0,1.66.46,3.4,3.4,0,0,0,1.57-.31,3.61,3.61,0,0,0,1.12-1,.65.65,0,0,1,.89-.14l1.26.88a.66.66,0,0,1,.28.44.69.69,0,0,1-.14.5A6.65,6.65,0,0,1,93,45.73,6.41,6.41,0,0,1,90.22,46.37Z"/><path class="cls-1" d="M102.3,46.37a6.19,6.19,0,0,1-3.2-.85,5.91,5.91,0,0,1-2.21-2.36,7.55,7.55,0,0,1,0-6.7,5.94,5.94,0,0,1,2.19-2.34,6.12,6.12,0,0,1,3.18-.85,5.49,5.49,0,0,1,2.54.6,8.35,8.35,0,0,1,.74.47v-.05a.66.66,0,0,1,.65-.65h1.61a.66.66,0,0,1,.66.65V45.34a.66.66,0,0,1-.66.65h-1.61a.65.65,0,0,1-.65-.65v0a6.89,6.89,0,0,1-.73.46A5.31,5.31,0,0,1,102.3,46.37Zm0-10.34a3,3,0,0,0-1.64.46,3.3,3.3,0,0,0-1.15,1.31,4.46,4.46,0,0,0-.43,2,4.58,4.58,0,0,0,.43,2,3.22,3.22,0,0,0,1.15,1.33,3,3,0,0,0,1.64.46,2.94,2.94,0,0,0,1.68-.46,3.22,3.22,0,0,0,1.15-1.33,4.82,4.82,0,0,0,0-4,3.19,3.19,0,0,0-1.15-1.32A3,3,0,0,0,102.25,36Z"/><path class="cls-1" d="M112.82,28.18H111.2a.65.65,0,0,0-.65.65V45.28a.65.65,0,0,0,.65.65h1.62a.65.65,0,0,0,.65-.65V28.83A.65.65,0,0,0,112.82,28.18Z"/><path class="cls-1" d="M139.44,46a.65.65,0,0,1-.62-.45l-2.11-6.6-2.28,6.61a.68.68,0,0,1-.63.44h-1.61a.65.65,0,0,1-.62-.45l-3.68-11a.65.65,0,0,1,.29-.77.7.7,0,0,1,.35-.09h1.7a.68.68,0,0,1,.62.45L133.08,41l2.27-6.88a.67.67,0,0,1,.62-.45h1.59a.67.67,0,0,1,.63.46l2.18,6.79,2.2-6.8a.67.67,0,0,1,.63-.45h1.54a.74.74,0,0,1,.25,0,.64.64,0,0,1,.38.8l-3.61,11a.65.65,0,0,1-.62.45Z"/><path class="cls-1" d="M152,46.37a6.15,6.15,0,0,1-3.19-.85,6,6,0,0,1-2.22-2.36,7.62,7.62,0,0,1,0-6.7,6,6,0,0,1,2.19-2.34,6.12,6.12,0,0,1,3.18-.85,5.55,5.55,0,0,1,2.53.61,5.15,5.15,0,0,1,.74.47V34.3a.66.66,0,0,1,.19-.46.67.67,0,0,1,.47-.2h1.61a.66.66,0,0,1,.66.65V45.34a.65.65,0,0,1-.66.65h-1.61a.65.65,0,0,1-.65-.65v0a6,6,0,0,1-.73.46A5.43,5.43,0,0,1,152,46.37Zm0-10.34a3,3,0,0,0-1.64.46,3.28,3.28,0,0,0-1.14,1.31,4.45,4.45,0,0,0-.44,2,4.59,4.59,0,0,0,.44,2,3.19,3.19,0,0,0,1.14,1.33,3.22,3.22,0,0,0,3.32,0,3.17,3.17,0,0,0,1.16-1.33,4.89,4.89,0,0,0,0-4,3.22,3.22,0,0,0-1.16-1.32A3,3,0,0,0,151.9,36Z"/><path class="cls-1" d="M125.44,42.09a.73.73,0,0,0-1,.12,4.33,4.33,0,0,1-1,.95,4.11,4.11,0,0,1-2,.44,2.79,2.79,0,0,1-2.28-1,4,4,0,0,1-.88-1.84h8.42a.65.65,0,0,0,.65-.59c0-.18,0-.43,0-.75a6.43,6.43,0,0,0-.76-3.12,5.84,5.84,0,0,0-5.2-3.06A5.87,5.87,0,0,0,116,36.48a7.18,7.18,0,0,0-.77,3.34,7,7,0,0,0,.79,3.35,6,6,0,0,0,2.21,2.36,6.18,6.18,0,0,0,3.22.84,6.75,6.75,0,0,0,3.36-.77,6.36,6.36,0,0,0,2-1.67.74.74,0,0,0,.15-.55.71.71,0,0,0-.3-.48Zm-6.14-5.27a2.76,2.76,0,0,1,2.06-.8,2.89,2.89,0,0,1,2.08.69,3,3,0,0,1,.8,1.45h-5.82A3.72,3.72,0,0,1,119.3,36.82Z"/><path class="cls-1" d="M171.25,33.92a.61.61,0,0,0-.53-.26H169.2a.64.64,0,0,0-.61.41l-3.15,8-3-8.07a.63.63,0,0,0-.6-.41h-1.69a.66.66,0,0,0-.61.89L163.94,46a1.74,1.74,0,0,1-.64,1.07,4,4,0,0,1-1.61.33.71.71,0,0,0-.67.7v1.11a.73.73,0,0,0,.21.5.72.72,0,0,0,.5.2,5.67,5.67,0,0,0,2.64-.38c1.77-.93,2-2.07,2.53-3.38l4.43-11.63A.62.62,0,0,0,171.25,33.92Z"/></svg>