<svg width="83" height="83" viewBox="0 0 83 83" fill="none" xmlns="http://www.w3.org/2000/svg">
<rect width="83" height="83" fill="#D7E4EF"/>
<path d="M55.5009 22.5882C53.9015 20.9358 51.7327 20.0075 49.4714 20.0075C47.21 20.0075 45.0412 20.9358 43.4419 22.5882L41.9999 24.0785L40.5477 22.5882C39.7566 21.7695 38.8171 21.1201 37.7829 20.677C36.7488 20.2339 35.6403 20.0058 34.5208 20.0058C33.4013 20.0058 32.2927 20.2339 31.2586 20.677C30.2244 21.1201 29.2849 21.7695 28.4938 22.5882C26.8966 24.2409 25.9995 26.4813 25.9995 28.8172C25.9995 31.1531 26.8966 33.3935 28.4938 35.0463L34.5233 41.2727L42.005 49.0053L55.5009 35.0463C57.0993 33.3942 57.9973 31.1536 57.9973 28.8172C57.9973 26.4809 57.0993 24.2402 55.5009 22.5882Z" fill="#99B7D1"/>
<path d="M21.492 63.564L21.45 62.304L27.386 56.2H28.576L24.25 60.736L23.662 61.366L21.492 63.564ZM20.596 66V56.2H21.632V66H20.596ZM27.638 66L23.41 61.128L24.11 60.372L28.87 66H27.638ZM33.1174 66.07C32.492 66.07 31.946 65.9533 31.4794 65.72C31.0127 65.4867 30.6487 65.1367 30.3874 64.67C30.1354 64.2033 30.0094 63.62 30.0094 62.92V58.65H31.0034V62.808C31.0034 63.592 31.1947 64.1847 31.5774 64.586C31.9694 64.978 32.5154 65.174 33.2154 65.174C33.7287 65.174 34.172 65.0713 34.5454 64.866C34.928 64.6513 35.2174 64.3433 35.4134 63.942C35.6187 63.5407 35.7214 63.06 35.7214 62.5V58.65H36.7154V66H35.7634V63.984L35.9174 64.348C35.684 64.8893 35.32 65.314 34.8254 65.622C34.34 65.9207 33.7707 66.07 33.1174 66.07ZM42.4116 66.07C41.7116 66.07 41.0816 65.9113 40.5216 65.594C39.9709 65.2767 39.5369 64.838 39.2196 64.278C38.9023 63.7087 38.7436 63.0553 38.7436 62.318C38.7436 61.5713 38.9023 60.918 39.2196 60.358C39.5369 59.798 39.9709 59.364 40.5216 59.056C41.0816 58.7387 41.7116 58.58 42.4116 58.58C43.0556 58.58 43.6296 58.7247 44.1336 59.014C44.6469 59.3033 45.0529 59.728 45.3516 60.288C45.6596 60.8387 45.8136 61.5153 45.8136 62.318C45.8136 63.1113 45.6643 63.788 45.3656 64.348C45.0669 64.908 44.6609 65.3373 44.1476 65.636C43.6436 65.9253 43.0649 66.07 42.4116 66.07ZM42.4816 65.188C43.0043 65.188 43.4709 65.0713 43.8816 64.838C44.3016 64.5953 44.6283 64.2593 44.8616 63.83C45.1043 63.3913 45.2256 62.8873 45.2256 62.318C45.2256 61.7393 45.1043 61.2353 44.8616 60.806C44.6283 60.3767 44.3016 60.0453 43.8816 59.812C43.4709 59.5693 43.0043 59.448 42.4816 59.448C41.9683 59.448 41.5063 59.5693 41.0956 59.812C40.6849 60.0453 40.3583 60.3767 40.1156 60.806C39.8729 61.2353 39.7516 61.7393 39.7516 62.318C39.7516 62.8873 39.8729 63.3913 40.1156 63.83C40.3583 64.2593 40.6849 64.5953 41.0956 64.838C41.5063 65.0713 41.9683 65.188 42.4816 65.188ZM45.2536 66V63.788L45.3516 62.304L45.2116 60.82V55.612H46.2056V66H45.2536ZM51.9699 66.07C51.2606 66.07 50.6212 65.9113 50.0519 65.594C49.4919 65.2673 49.0486 64.824 48.7219 64.264C48.3952 63.6947 48.2319 63.046 48.2319 62.318C48.2319 61.5807 48.3952 60.932 48.7219 60.372C49.0486 59.812 49.4919 59.3733 50.0519 59.056C50.6119 58.7387 51.2512 58.58 51.9699 58.58C52.6979 58.58 53.3419 58.7387 53.9019 59.056C54.4712 59.3733 54.9146 59.812 55.2319 60.372C55.5586 60.932 55.7219 61.5807 55.7219 62.318C55.7219 63.046 55.5586 63.6947 55.2319 64.264C54.9146 64.824 54.4712 65.2673 53.9019 65.594C53.3326 65.9113 52.6886 66.07 51.9699 66.07ZM51.9699 65.188C52.5019 65.188 52.9732 65.0713 53.3839 64.838C53.7946 64.5953 54.1166 64.2593 54.3499 63.83C54.5926 63.3913 54.7139 62.8873 54.7139 62.318C54.7139 61.7393 54.5926 61.2353 54.3499 60.806C54.1166 60.3767 53.7946 60.0453 53.3839 59.812C52.9732 59.5693 52.5066 59.448 51.9839 59.448C51.4612 59.448 50.9946 59.5693 50.5839 59.812C50.1732 60.0453 49.8466 60.3767 49.6039 60.806C49.3612 61.2353 49.2399 61.7393 49.2399 62.318C49.2399 62.8873 49.3612 63.3913 49.6039 63.83C49.8466 64.2593 50.1732 64.5953 50.5839 64.838C50.9946 65.0713 51.4566 65.188 51.9699 65.188ZM59.7252 66.07C59.1186 66.07 58.5446 65.986 58.0032 65.818C57.4619 65.6407 57.0372 65.4213 56.7292 65.16L57.1772 64.376C57.4759 64.6 57.8586 64.796 58.3252 64.964C58.7919 65.1227 59.2819 65.202 59.7952 65.202C60.4952 65.202 60.9992 65.0947 61.3072 64.88C61.6152 64.656 61.7692 64.362 61.7692 63.998C61.7692 63.7273 61.6806 63.5173 61.5032 63.368C61.3352 63.2093 61.1112 63.0927 60.8312 63.018C60.5512 62.934 60.2386 62.864 59.8932 62.808C59.5479 62.752 59.2026 62.6867 58.8572 62.612C58.5212 62.5373 58.2132 62.43 57.9332 62.29C57.6532 62.1407 57.4246 61.94 57.2472 61.688C57.0792 61.436 56.9952 61.1 56.9952 60.68C56.9952 60.2787 57.1072 59.9193 57.3312 59.602C57.5552 59.2847 57.8819 59.0373 58.3112 58.86C58.7499 58.6733 59.2819 58.58 59.9072 58.58C60.3832 58.58 60.8592 58.6453 61.3352 58.776C61.8112 58.8973 62.2032 59.0607 62.5112 59.266L62.0772 60.064C61.7506 59.84 61.4006 59.6813 61.0272 59.588C60.6539 59.4853 60.2806 59.434 59.9072 59.434C59.2446 59.434 58.7546 59.5507 58.4372 59.784C58.1292 60.008 57.9752 60.2973 57.9752 60.652C57.9752 60.932 58.0592 61.1513 58.2272 61.31C58.4046 61.4687 58.6332 61.5947 58.9132 61.688C59.2026 61.772 59.5152 61.842 59.8512 61.898C60.1966 61.954 60.5372 62.024 60.8732 62.108C61.2186 62.1827 61.5312 62.29 61.8112 62.43C62.1006 62.5607 62.3292 62.752 62.4972 63.004C62.6746 63.2467 62.7632 63.5687 62.7632 63.97C62.7632 64.3993 62.6419 64.7727 62.3992 65.09C62.1659 65.398 61.8206 65.6407 61.3632 65.818C60.9152 65.986 60.3692 66.07 59.7252 66.07Z" fill="#07162F"/>
</svg>
