<svg width="96" height="108" viewBox="0 0 96 108" fill="none" xmlns="http://www.w3.org/2000/svg">
<path d="M0 0V79.8998L47.7076 107.2L95.3333 79.8998V0L47.7076 0.00019455L0 0Z" fill="#07162F"/>
<mask id="mask0_449_19927" style="mask-type:alpha" maskUnits="userSpaceOnUse" x="0" y="1" width="96" height="107">
<path d="M0 25.3091V79.9271L47.7076 107.236L95.3333 79.9271V25.3091L47.7076 1L0 25.3091Z" fill="#07162F"/>
</mask>
<g mask="url(#mask0_449_19927)">
<g filter="url(#filter0_f_449_19927)">
<path d="M67.3121 54.9293C29.9732 62.8738 1.43992 41.8541 -3.19434 34.0752L0.281349 25.6342L-28.0212 9.24878C-45.2342 24.4756 -76.4823 57.6106 -63.7712 68.3356C-47.8823 81.7418 31.5626 66.846 84.6911 64.3634C127.194 62.3773 157.018 117.657 176.548 137.849L198.892 28.1168C170.59 33.7441 104.651 46.9849 67.3121 54.9293Z" fill="#EB5050"/>
</g>
<g filter="url(#filter1_f_449_19927)">
<path d="M67.3121 54.9293C29.9732 62.8738 1.43992 41.8541 -3.19434 34.0752L0.281349 25.6342L-28.0212 9.24878C-45.2342 24.4756 -76.4823 57.6106 -63.7712 68.3356C-47.8823 81.7418 31.5626 66.846 84.6911 64.3634C127.194 62.3773 157.018 117.657 176.548 137.849L198.892 28.1168C170.59 33.7441 104.651 46.9849 67.3121 54.9293Z" fill="#EB5050"/>
</g>
<g filter="url(#filter2_f_449_19927)">
<path d="M-3.19434 34.0752C0.227982 39.8198 23.6033 56.6414 50.6331 61.8472C60.7955 60.6151 70.7272 59.6468 80 59.2135V62C70.2353 64.0776 60.205 63.6908 50.6331 61.8472C2.57021 67.6745 -50.6555 79.402 -63.7712 68.3356C-76.4823 57.6106 -45.2342 24.4756 -28.0212 9.24878L0.281349 25.6342L-3.19434 34.0752Z" fill="white" fill-opacity="0.2"/>
</g>
</g>
<path d="M53.3335 53.997C55.1354 52.7125 56.4851 50.8836 57.1872 48.7746C57.8893 46.6655 57.9073 44.3861 57.2387 42.2661C56.5702 40.146 55.2497 38.2955 53.4684 36.9821C51.6871 35.6688 49.5374 34.9608 47.3305 34.9608C45.1235 34.9608 42.9737 35.6688 41.1924 36.9821C39.4111 38.2955 38.0906 40.146 37.4221 42.2661C36.7535 44.3861 36.7717 46.6655 37.4738 48.7746C38.1758 50.8836 39.5254 52.7125 41.3273 53.997V59.888C41.3228 59.9091 41.3228 59.931 41.3273 59.9521C41.3056 60.162 41.3462 60.374 41.4438 60.5607L43.5613 64.445C43.6518 64.6118 43.785 64.7512 43.9469 64.8488C44.1089 64.9464 44.2937 64.9985 44.4824 64.9999H50.1362C50.3266 65.0005 50.5136 64.9491 50.6776 64.8514C50.8415 64.7537 50.9764 64.6134 51.0679 64.445L53.1853 60.5607C53.283 60.374 53.3235 60.162 53.3018 59.9521C53.3018 59.9521 53.3018 59.952 53.3018 59.888L53.3335 53.997ZM39.051 45.4593C39.0515 44.0061 39.4281 42.5784 40.1434 41.3166C40.8587 40.0549 41.888 39.0028 43.1299 38.2646C44.3717 37.5264 45.7831 37.1276 47.2246 37.1072C48.6662 37.0868 50.0881 37.4456 51.35 38.1484C52.6119 38.8511 53.6702 39.8734 54.4204 41.1144C55.1705 42.3554 55.5866 43.7722 55.6276 45.2248C55.6686 46.6775 55.333 48.1158 54.654 49.3978C53.9751 50.6798 52.9762 51.7614 51.7559 52.5353C51.7251 52.561 51.6968 52.5892 51.6713 52.6202L51.5125 52.7594L51.4066 52.9407C51.3721 52.9943 51.3438 53.0512 51.322 53.1111C51.3169 53.1857 51.3169 53.2611 51.322 53.3357C51.322 53.3357 51.322 53.3993 51.322 53.442V58.778H43.5507V53.442C43.5557 53.403 43.5557 53.3637 43.5507 53.3248C43.5597 53.2539 43.5597 53.182 43.5507 53.1111C43.5305 53.0489 43.5058 52.9883 43.4766 52.9298L43.3602 52.7698C43.3181 52.7095 43.264 52.6584 43.2013 52.6202C43.2013 52.6202 43.2014 52.5567 43.1167 52.5353C41.9024 51.8031 40.8948 50.7687 40.1904 49.5317C39.486 48.2947 39.1083 46.8965 39.0934 45.4703L39.051 45.4593ZM49.5326 62.8551H45.1388L44.186 61.1047H50.5385L49.5326 62.8551Z" fill="white"/>
<path d="M49.7198 44.9275L44.6562 46.937L45.432 48.923L50.4955 46.9136L49.7198 44.9275Z" fill="#EB5050"/>
<path d="M49.7198 48.3401L44.6562 50.3496L45.432 52.3356L50.4955 50.3262L49.7198 48.3401Z" fill="#EB5050"/>
<path d="M48.6338 54.3066H46.2305V56.441H48.6338V54.3066Z" fill="#EB5050"/>
<path d="M61.803 34.5466L57.3125 37.8304L58.5559 39.5581L63.0465 36.2743L61.803 34.5466Z" fill="#EB5050"/>
<path d="M33.2122 34.6769L31.9688 36.4045L36.4591 39.6882L37.7025 37.9606L33.2122 34.6769Z" fill="#EB5050"/>
<path d="M48.3909 28H46.2734V33.0906H48.3909V28Z" fill="#EB5050"/>
<defs>
<filter id="filter0_f_449_19927" x="-106.734" y="-30.7512" width="345.626" height="208.601" filterUnits="userSpaceOnUse" color-interpolation-filters="sRGB">
<feFlood flood-opacity="0" result="BackgroundImageFix"/>
<feBlend mode="normal" in="SourceGraphic" in2="BackgroundImageFix" result="shape"/>
<feGaussianBlur stdDeviation="20" result="effect1_foregroundBlur_449_19927"/>
</filter>
<filter id="filter1_f_449_19927" x="-96.7344" y="-20.7512" width="325.626" height="188.601" filterUnits="userSpaceOnUse" color-interpolation-filters="sRGB">
<feFlood flood-opacity="0" result="BackgroundImageFix"/>
<feBlend mode="normal" in="SourceGraphic" in2="BackgroundImageFix" result="shape"/>
<feGaussianBlur stdDeviation="15" result="effect1_foregroundBlur_449_19927"/>
</filter>
<filter id="filter2_f_449_19927" x="-76.7344" y="-0.751221" width="166.734" height="83.667" filterUnits="userSpaceOnUse" color-interpolation-filters="sRGB">
<feFlood flood-opacity="0" result="BackgroundImageFix"/>
<feBlend mode="normal" in="SourceGraphic" in2="BackgroundImageFix" result="shape"/>
<feGaussianBlur stdDeviation="5" result="effect1_foregroundBlur_449_19927"/>
</filter>
</defs>
</svg>
