<svg width="96" height="108" viewBox="0 0 96 108" fill="none" xmlns="http://www.w3.org/2000/svg">
<path d="M0 0V79.8998L47.7076 107.2L95.3333 79.8998V0L47.7076 0.00019455L0 0Z" fill="#07162F"/>
<mask id="mask0_449_19871" style="mask-type:alpha" maskUnits="userSpaceOnUse" x="0" y="1" width="96" height="107">
<path d="M0 25.3091V79.9271L47.7076 107.236L95.3333 79.9271V25.3091L47.7076 1L0 25.3091Z" fill="#07162F"/>
</mask>
<g mask="url(#mask0_449_19871)">
<g filter="url(#filter0_f_449_19871)">
<path d="M67.3121 54.9294C29.9732 62.8738 1.43992 41.8542 -3.19434 34.0752L0.281349 25.6343L-28.0212 9.24884C-45.2342 24.4757 -76.4823 57.6106 -63.7712 68.3356C-47.8823 81.7419 31.5626 66.8461 84.6911 64.3634C127.194 62.3773 157.018 117.657 176.548 137.85L198.892 28.1169C170.59 33.7442 104.651 46.985 67.3121 54.9294Z" fill="#EB5050"/>
</g>
<g filter="url(#filter1_f_449_19871)">
<path d="M67.3121 54.9293C29.9732 62.8738 1.43992 41.8541 -3.19434 34.0752L0.281349 25.6342L-28.0212 9.24878C-45.2342 24.4756 -76.4823 57.6106 -63.7712 68.3356C-47.8823 81.7418 31.5626 66.846 84.6911 64.3634C127.194 62.3773 157.018 117.657 176.548 137.849L198.892 28.1168C170.59 33.7441 104.651 46.9849 67.3121 54.9293Z" fill="#EB5050"/>
</g>
<g filter="url(#filter2_f_449_19871)">
<path d="M-3.19434 34.0752C0.227982 39.8198 23.6033 56.6414 50.6331 61.8472C60.7955 60.6151 70.7272 59.6468 80 59.2135V62C70.2353 64.0776 60.205 63.6908 50.6331 61.8472C2.57021 67.6745 -50.6555 79.402 -63.7712 68.3356C-76.4823 57.6106 -45.2342 24.4756 -28.0212 9.24878L0.281349 25.6342L-3.19434 34.0752Z" fill="white" fill-opacity="0.2"/>
</g>
</g>
<path d="M66.9888 47.8503C67.8683 49.1953 68.3977 50.7385 68.5288 52.3401H65.7188V54.3401H68.4788C68.365 55.2249 68.1294 56.0896 67.7788 56.9099L69.6188 57.7C70.3785 55.9338 70.6878 54.0067 70.5189 52.0916C70.3499 50.1764 69.7079 48.3331 68.6506 46.7273C67.5934 45.1215 66.1539 43.8039 64.4614 42.8918C62.7689 41.9798 60.8764 41.5022 58.9538 41.5022C57.0312 41.5022 55.1387 41.9798 53.4462 42.8918C51.7537 43.8039 50.3142 45.1215 49.2569 46.7273C48.1996 48.3331 47.5577 50.1764 47.3887 52.0916C47.2197 54.0067 47.529 55.9338 48.2888 57.7L50.1288 56.9099C49.7813 56.0892 49.5491 55.2245 49.4388 54.3401H52.3788V52.3401H49.3788C49.5156 50.4469 50.2117 48.6368 51.3788 47.1399L53.5688 49.3303L54.9888 47.9202L52.7788 45.7102C54.2595 44.4775 56.08 43.7241 57.9988 43.55V46.6702H59.9988V43.6101C62.1412 43.8522 64.1391 44.8108 65.6688 46.3303L66.9888 47.8503Z" fill="#EB5050"/>
<path d="M66.5293 45.4541L58.3789 54.0698L59.8318 55.4443L67.9822 46.8285L66.5293 45.4541Z" fill="white"/>
<path d="M57.5 60.34V65.11H36V32H57.5V37.68H59.5V30H34V67.11H59.5V60.34H57.5Z" fill="white"/>
<path d="M44.7284 35.7H40.6484V37.7H44.7284V35.7Z" fill="white"/>
<path d="M53.4914 35.7H46.4414V37.7H53.4914V35.7Z" fill="white"/>
<path d="M48.7784 39.4199H40.6484V41.4199H48.7784V39.4199Z" fill="white"/>
<defs>
<filter id="filter0_f_449_19871" x="-106.734" y="-30.7512" width="345.626" height="208.601" filterUnits="userSpaceOnUse" color-interpolation-filters="sRGB">
<feFlood flood-opacity="0" result="BackgroundImageFix"/>
<feBlend mode="normal" in="SourceGraphic" in2="BackgroundImageFix" result="shape"/>
<feGaussianBlur stdDeviation="20" result="effect1_foregroundBlur_449_19871"/>
</filter>
<filter id="filter1_f_449_19871" x="-96.7344" y="-20.7512" width="325.626" height="188.601" filterUnits="userSpaceOnUse" color-interpolation-filters="sRGB">
<feFlood flood-opacity="0" result="BackgroundImageFix"/>
<feBlend mode="normal" in="SourceGraphic" in2="BackgroundImageFix" result="shape"/>
<feGaussianBlur stdDeviation="15" result="effect1_foregroundBlur_449_19871"/>
</filter>
<filter id="filter2_f_449_19871" x="-76.7344" y="-0.751221" width="166.734" height="83.667" filterUnits="userSpaceOnUse" color-interpolation-filters="sRGB">
<feFlood flood-opacity="0" result="BackgroundImageFix"/>
<feBlend mode="normal" in="SourceGraphic" in2="BackgroundImageFix" result="shape"/>
<feGaussianBlur stdDeviation="5" result="effect1_foregroundBlur_449_19871"/>
</filter>
</defs>
</svg>
