<svg width="96" height="108" viewBox="0 0 96 108" fill="none" xmlns="http://www.w3.org/2000/svg">
<path d="M0 0V79.8998L47.7076 107.2L95.3333 79.8998V0L47.7076 0.00019455L0 0Z" fill="#07162F"/>
<mask id="mask0_449_19942" style="mask-type:alpha" maskUnits="userSpaceOnUse" x="0" y="1" width="96" height="107">
<path d="M0 25.3091V79.9271L47.7076 107.236L95.3333 79.9271V25.3091L47.7076 1L0 25.3091Z" fill="#07162F"/>
</mask>
<g mask="url(#mask0_449_19942)">
<g filter="url(#filter0_f_449_19942)">
<path d="M67.3121 54.9293C29.9732 62.8738 1.43992 41.8541 -3.19434 34.0752L0.281349 25.6342L-28.0212 9.24878C-45.2342 24.4756 -76.4823 57.6106 -63.7712 68.3356C-47.8823 81.7418 31.5626 66.846 84.6911 64.3634C127.194 62.3773 157.018 117.657 176.548 137.849L198.892 28.1168C170.59 33.7441 104.651 46.9849 67.3121 54.9293Z" fill="#EB5050"/>
</g>
<g filter="url(#filter1_f_449_19942)">
<path d="M67.3121 54.9293C29.9732 62.8738 1.43992 41.8541 -3.19434 34.0752L0.281349 25.6342L-28.0212 9.24878C-45.2342 24.4756 -76.4823 57.6106 -63.7712 68.3356C-47.8823 81.7418 31.5626 66.846 84.6911 64.3634C127.194 62.3773 157.018 117.657 176.548 137.849L198.892 28.1168C170.59 33.7441 104.651 46.9849 67.3121 54.9293Z" fill="#EB5050"/>
</g>
<g filter="url(#filter2_f_449_19942)">
<path d="M-3.19434 34.0752C0.227982 39.8198 23.6033 56.6414 50.6331 61.8472C60.7955 60.6151 70.7272 59.6468 80 59.2135V62C70.2353 64.0776 60.205 63.6908 50.6331 61.8472C2.57021 67.6745 -50.6555 79.402 -63.7712 68.3356C-76.4823 57.6106 -45.2342 24.4756 -28.0212 9.24878L0.281349 25.6342L-3.19434 34.0752Z" fill="white" fill-opacity="0.2"/>
</g>
</g>
<path d="M59.4092 55.35V54.35H36.4492V48.34H58.4092V55.35H59.4092V54.35V55.35H60.4092V46.34H34.4492V56.35H60.4092V55.35H59.4092Z" fill="white"/>
<path d="M59.4092 68.8401V67.8401H36.4492V61.8301H58.4092V68.8401H59.4092V67.8401V68.8401H60.4092V59.8301H34.4492V69.8401H60.4092V68.8401H59.4092Z" fill="white"/>
<path d="M38.6602 52.34H42.0402V50.34H38.6602" fill="white"/>
<path d="M59.4092 42.31V41.31H36.4492V35.3H58.4092V42.31H59.4092V41.31V42.31H60.4092V33.3H34.4492V43.31H60.4092V42.31H59.4092Z" fill="white"/>
<path d="M38.6602 39.3101H42.0402V37.3101H38.6602" fill="white"/>
<path d="M38.6602 65.83H42.0402V63.83H38.6602" fill="white"/>
<path d="M59.5117 29H64.5117V34.4H66.5117V27H59.5117V29Z" fill="#EB5050"/>
<path d="M64.5094 70.85V75.85H59.1094V77.85H66.5094V70.85H64.5094Z" fill="#EB5050"/>
<path d="M31 34.2V29.2H36.4V27.2H29V34.2H31Z" fill="#EB5050"/>
<path d="M36 76.0499H31V70.6499H29V78.0499H36V76.0499Z" fill="#EB5050"/>
<defs>
<filter id="filter0_f_449_19942" x="-106.734" y="-30.7512" width="345.626" height="208.601" filterUnits="userSpaceOnUse" color-interpolation-filters="sRGB">
<feFlood flood-opacity="0" result="BackgroundImageFix"/>
<feBlend mode="normal" in="SourceGraphic" in2="BackgroundImageFix" result="shape"/>
<feGaussianBlur stdDeviation="20" result="effect1_foregroundBlur_449_19942"/>
</filter>
<filter id="filter1_f_449_19942" x="-96.7344" y="-20.7512" width="325.626" height="188.601" filterUnits="userSpaceOnUse" color-interpolation-filters="sRGB">
<feFlood flood-opacity="0" result="BackgroundImageFix"/>
<feBlend mode="normal" in="SourceGraphic" in2="BackgroundImageFix" result="shape"/>
<feGaussianBlur stdDeviation="15" result="effect1_foregroundBlur_449_19942"/>
</filter>
<filter id="filter2_f_449_19942" x="-76.7344" y="-0.751221" width="166.734" height="83.667" filterUnits="userSpaceOnUse" color-interpolation-filters="sRGB">
<feFlood flood-opacity="0" result="BackgroundImageFix"/>
<feBlend mode="normal" in="SourceGraphic" in2="BackgroundImageFix" result="shape"/>
<feGaussianBlur stdDeviation="5" result="effect1_foregroundBlur_449_19942"/>
</filter>
</defs>
</svg>
