<?xml version="1.0" encoding="utf-8"?>
<!-- Generator: Adobe Illustrator 26.0.2, SVG Export Plug-In . SVG Version: 6.00 Build 0)  -->
<svg version="1.1" id="Calque_1" xmlns="http://www.w3.org/2000/svg" xmlns:xlink="http://www.w3.org/1999/xlink" x="0px" y="0px"
	 viewBox="0 0 1332.7 179.7" style="enable-background:new 0 0 1332.7 179.7;" xml:space="preserve">
<style type="text/css">
	.st0{fill-rule:evenodd;clip-rule:evenodd;fill:#FFFFFF;}
	.st1{fill:#FFFFFF;}
	.st2{fill:#07162F;}
</style>
<polygon class="st0" points="1332.7,0 0,0 0,103.6 "/>
<path class="st1" d="M222.7,4.3V153l47.5,26.7l47.5-26.7V4.3H222.7z"/>
<path class="st2" d="M265,139.4c0,2.1,0,8.2,0,8.8h13c0-0.3,0-1.2,0-2.6c0-2.6,0-6.6,0-8.9s-0.8-3.9-1.8-4.7
	c5.8-0.6,11.9-2.7,11.9-12.4c0-2.7-1-5-2.7-6.7c0.3-0.6,1.2-3.2-0.3-6.7c0,0-2.2-0.7-7.2,2.6c-2.1-0.6-4.3-0.8-6.5-0.8
	s-4.5,0.3-6.5,0.8c-5-3.3-7.2-2.6-7.2-2.6c-1.4,3.5-0.5,6-0.3,6.7c-1.7,1.8-2.7,4-2.7,6.7c0,9.6,6.1,11.8,11.9,12.4
	c-0.7,0.6-1.4,1.7-1.7,3.4c-1.5,0.6-5.3,1.8-7.6-2.1c0,0-1.4-2.4-4-2.6c0,0-2.6,0-0.2,1.5c0,0,1.7,0.8,2.9,3.7
	C256.1,136,257.7,140.9,265,139.4z"/>
</svg>
