<svg width="55" height="50" viewBox="0 0 55 50" fill="none" xmlns="http://www.w3.org/2000/svg">
<path d="M51.2522 32.6588C51.1413 32.4179 51.0236 32.1838 50.892 31.9704C50.7604 31.757 50.5733 31.4541 50.4002 31.2062L52.2635 28.0395L45.0041 23.8195L43.1338 27C42.814 26.9666 42.4925 26.9505 42.1709 26.9518C41.88 26.9518 41.596 26.9518 41.3051 26.9931L39.4694 23.7988L32.1961 27.9294L34.0248 31.1167C33.6981 31.5822 33.413 32.0751 33.1728 32.59H29.4254L29.3838 41.1333H33.1243C33.2351 41.3687 33.3576 41.5984 33.4915 41.8217C33.6439 42.0902 33.8101 42.338 33.9833 42.5859L32.1199 45.7595L39.3794 49.9726L41.2427 46.799C41.5614 46.799 41.8869 46.8472 42.2056 46.8472C42.5242 46.8472 42.7874 46.8472 43.0784 46.8059L44.914 49.9933L52.1873 45.8627L50.3586 42.6685C50.673 42.2027 50.9487 41.7123 51.1829 41.2021H54.9304V39.8253L54.965 32.6588H51.2522ZM45.9184 46.2414L44.533 43.7837L43.5633 43.9696C43.1065 44.0557 42.6427 44.0995 42.1779 44.1004C41.7124 44.0985 41.2482 44.0501 40.7925 43.9558L39.8227 43.763L38.3819 46.2138L35.909 44.775L37.329 42.3311L36.6848 41.5876C36.3837 41.2382 36.1148 40.8627 35.8813 40.4655C35.6673 40.0879 35.4887 39.6915 35.3479 39.2814L35.0223 38.3727H32.1546V35.3299H35.0223L35.3548 34.4212C35.6663 33.5746 36.1364 32.7944 36.7402 32.1219L37.3913 31.3852L36.006 28.9276L38.472 27.5507L39.8573 30.0084L40.7925 29.8363C41.7077 29.662 42.648 29.662 43.5633 29.8363L44.533 30.0291L45.9738 27.5783L48.4468 29.0171L47.0267 31.4403L47.664 32.1838C47.9696 32.5321 48.2388 32.9104 48.4675 33.3128C48.6811 33.6892 48.8619 34.083 49.0078 34.49L49.3334 35.4056H52.2012V38.4416H49.3265L48.994 39.3503C48.6818 40.1965 48.2118 40.9765 47.6086 41.6496L46.9575 42.3862L48.3429 44.8439L45.9184 46.2414Z" fill="#EB5050"/>
<path d="M46.5841 34.3866C45.9624 33.3287 44.9747 32.5316 43.8053 32.1442C42.6358 31.7567 41.3645 31.8053 40.2284 32.281C39.0924 32.7566 38.1692 33.6267 37.6312 34.729C37.0932 35.8312 36.977 37.0904 37.3044 38.2715C37.6318 39.4526 38.3804 40.4751 39.4105 41.148C40.4406 41.821 41.6819 42.0985 42.9027 41.9288C44.1236 41.7591 45.2406 41.1539 46.0455 40.2259C46.8503 39.2979 47.288 38.1106 47.2768 36.8856C47.2691 36.0068 47.0303 35.1453 46.5841 34.3866ZM44.1804 35.7634C44.3559 36.0682 44.4587 36.4089 44.4807 36.7593C44.5028 37.1097 44.4435 37.4605 44.3075 37.7846C44.1716 38.1086 43.9625 38.3973 43.6965 38.6284C43.4305 38.8594 43.1147 39.0267 42.7733 39.1172C42.432 39.2078 42.0743 39.2192 41.7278 39.1506C41.3813 39.082 41.0553 38.9352 40.775 38.7215C40.4946 38.5079 40.2674 38.2331 40.1108 37.9184C39.9542 37.6036 39.8725 37.2573 39.8719 36.9062C39.871 36.4005 40.0384 35.9087 40.348 35.5074C40.6577 35.1061 41.0921 34.8178 41.5837 34.6874C42.0754 34.557 42.5966 34.5918 43.0663 34.7864C43.5359 34.9811 43.9276 35.3245 44.1804 35.7634L45.3788 35.075L44.1804 35.7634Z" fill="#EB5050"/>
<path d="M26.454 41.7458C26.1077 41.7458 25.7613 41.7458 25.4081 41.7458C20.296 41.7426 15.3795 39.7925 11.67 36.2967C7.96048 32.8009 5.74002 28.0251 5.46537 22.9519C5.46537 22.6008 5.46537 22.2635 5.46537 21.9055C5.46537 21.7334 5.46537 21.5682 5.46537 21.3961L8.03526 23.3581L9.3029 21.7265L4.21851 17.837L0 23.2893L1.64861 24.5491L3.38035 22.3048C3.38035 22.5595 3.38035 22.8074 3.38035 23.0621C3.6714 28.6686 6.11657 33.9502 10.2114 37.8174C14.3063 41.6846 19.7384 43.8424 25.3873 43.8455C25.7683 43.8455 26.1562 43.8455 26.5441 43.8455L26.4332 41.7802L26.454 41.7458Z" fill="#99B7D1"/>
<path d="M49.3268 15.9989L47.2487 18.6975C46.4706 13.5029 43.8422 8.75844 39.8416 5.32708C35.841 1.89571 30.7341 0.00537838 25.4496 -3.05176e-05C25.0617 -3.05176e-05 24.6807 -3.05176e-05 24.2928 -3.05176e-05C20.0951 0.214733 16.0467 1.61788 12.625 4.04394C9.20322 6.47 6.5508 9.81782 4.98047 13.6927L6.90616 14.4637C8.33156 10.9587 10.7339 7.93078 13.8309 5.73575C16.928 3.54071 20.5911 2.26973 24.3898 2.07212C24.7431 2.07212 25.0825 2.07212 25.4427 2.07212C30.2087 2.07695 34.8161 3.77447 38.4336 6.85838C42.0511 9.94229 44.4405 14.2095 45.1706 18.8902L42.9402 17.1899L41.6725 18.8214L46.7569 22.711L50.9754 17.2587L49.3268 15.9989Z" fill="#99B7D1"/>
</svg>
