<svg width="96" height="108" viewBox="0 0 96 108" fill="none" xmlns="http://www.w3.org/2000/svg">
<path d="M0 0V79.8998L47.7076 107.2L95.3333 79.8998V0L47.7076 0.00019455L0 0Z" fill="#07162F"/>
<mask id="mask0_449_19885" style="mask-type:alpha" maskUnits="userSpaceOnUse" x="0" y="1" width="96" height="107">
<path d="M0 25.3091V79.9271L47.7076 107.236L95.3333 79.9271V25.3091L47.7076 1L0 25.3091Z" fill="#07162F"/>
</mask>
<g mask="url(#mask0_449_19885)">
<g filter="url(#filter0_f_449_19885)">
<path d="M67.3121 54.9294C29.9732 62.8738 1.43992 41.8542 -3.19434 34.0752L0.281349 25.6343L-28.0212 9.24884C-45.2342 24.4757 -76.4823 57.6106 -63.7712 68.3356C-47.8823 81.7419 31.5626 66.8461 84.6911 64.3634C127.194 62.3773 157.018 117.657 176.548 137.85L198.892 28.1169C170.59 33.7442 104.651 46.985 67.3121 54.9294Z" fill="#EB5050"/>
</g>
<g filter="url(#filter1_f_449_19885)">
<path d="M67.3121 54.9293C29.9732 62.8738 1.43992 41.8541 -3.19434 34.0752L0.281349 25.6342L-28.0212 9.24878C-45.2342 24.4756 -76.4823 57.6106 -63.7712 68.3356C-47.8823 81.7418 31.5626 66.846 84.6911 64.3634C127.194 62.3773 157.018 117.657 176.548 137.849L198.892 28.1168C170.59 33.7441 104.651 46.9849 67.3121 54.9293Z" fill="#EB5050"/>
</g>
<g filter="url(#filter2_f_449_19885)">
<path d="M-3.19434 34.0752C0.227982 39.8198 23.6033 56.6414 50.6331 61.8472C60.7955 60.6151 70.7272 59.6468 80 59.2135V62C70.2353 64.0776 60.205 63.6908 50.6331 61.8472C2.57021 67.6745 -50.6555 79.402 -63.7712 68.3356C-76.4823 57.6106 -45.2342 24.4756 -28.0212 9.24878L0.281349 25.6342L-3.19434 34.0752Z" fill="white" fill-opacity="0.2"/>
</g>
</g>
<path d="M57.96 37.03V39.05H36V33.04H46.98V31.04H34V41.05H59.96V37.03H57.96Z" fill="white"/>
<path d="M34 54.5901H60.0001V44.5901H34V54.5901ZM36 46.5901H58.0001V52.5901H36V46.5901Z" fill="white"/>
<path d="M34 68.0203H60.0001V58.0203H34V68.0203ZM36 60.0203H58.0001V66.0203H36V60.0203Z" fill="white"/>
<path d="M41.5909 35.04H38.2109V37.04H41.5909V35.04Z" fill="white"/>
<path d="M41.5909 48.53H38.2109V50.53H41.5909V48.53Z" fill="white"/>
<path d="M41.5909 62.02H38.2109V64.02H41.5909V62.02Z" fill="white"/>
<path d="M66.4412 24.59C65.5754 24.5881 64.7181 24.7613 63.9212 25.0998C63.0889 24.2774 62.0695 23.6694 60.9505 23.3278C59.8315 22.9862 58.6462 22.9215 57.4965 23.1388C56.3469 23.3562 55.2671 23.8493 54.35 24.5759C53.4329 25.3024 52.7059 26.2408 52.2313 27.3102H51.8913C50.8929 27.3097 49.9163 27.6018 49.0826 28.1511C48.2489 28.7003 47.5947 29.4825 47.2012 30.4001C46.925 31.0307 46.7821 31.7116 46.7813 32.4001C46.7812 33.0707 46.9135 33.7348 47.1704 34.3542C47.4273 34.9736 47.8039 35.5362 48.2786 36.0099C48.7532 36.4837 49.3165 36.8592 49.9365 37.1149C50.5564 37.3706 51.2207 37.5015 51.8913 37.5002H66.4412C67.3103 37.5344 68.1773 37.3926 68.9903 37.0837C69.8033 36.7747 70.5456 36.3046 71.1725 35.7018C71.7995 35.0991 72.2983 34.3761 72.639 33.5759C72.9797 32.7756 73.1553 31.9148 73.1553 31.0451C73.1553 30.1754 72.9797 29.3145 72.639 28.5143C72.2983 27.7141 71.7995 26.9911 71.1725 26.3884C70.5456 25.7856 69.8033 25.3155 68.9903 25.0065C68.1773 24.6975 67.3103 24.5558 66.4412 24.59ZM69.5912 34.1999C68.7563 35.0367 67.6233 35.508 66.4412 35.5099H51.8913C51.4512 35.5103 51.016 35.4173 50.6145 35.237C50.213 35.0567 49.8544 34.7932 49.5623 34.464C49.2702 34.1348 49.0512 33.7474 48.92 33.3273C48.7887 32.9072 48.7482 32.4645 48.8009 32.0275C48.8536 31.5906 48.9985 31.1694 49.226 30.7927C49.4534 30.4159 49.7583 30.0917 50.1203 29.8415C50.4824 29.5913 50.8934 29.4211 51.3262 29.3415C51.7591 29.2619 52.2039 29.2749 52.6313 29.3801L53.5412 29.61L53.8212 28.7101C54.1004 27.8005 54.622 26.984 55.33 26.3483C56.038 25.7126 56.9057 25.2816 57.84 25.1017C58.7744 24.9219 59.7401 25 60.6335 25.3273C61.5269 25.6547 62.3143 26.2192 62.9112 26.9601L63.4512 27.6301L64.2012 27.1999C65.0497 26.7034 66.0388 26.5018 67.0139 26.6266C67.989 26.7515 68.8952 27.1956 69.5912 27.8898C70.007 28.3033 70.3368 28.7952 70.562 29.3366C70.7871 29.878 70.903 30.4587 70.903 31.0451C70.903 31.6315 70.7871 32.2121 70.562 32.7536C70.3368 33.295 70.007 33.7864 69.5912 34.1999Z" fill="#EB5050"/>
<defs>
<filter id="filter0_f_449_19885" x="-106.734" y="-30.7512" width="345.626" height="208.601" filterUnits="userSpaceOnUse" color-interpolation-filters="sRGB">
<feFlood flood-opacity="0" result="BackgroundImageFix"/>
<feBlend mode="normal" in="SourceGraphic" in2="BackgroundImageFix" result="shape"/>
<feGaussianBlur stdDeviation="20" result="effect1_foregroundBlur_449_19885"/>
</filter>
<filter id="filter1_f_449_19885" x="-96.7344" y="-20.7512" width="325.626" height="188.601" filterUnits="userSpaceOnUse" color-interpolation-filters="sRGB">
<feFlood flood-opacity="0" result="BackgroundImageFix"/>
<feBlend mode="normal" in="SourceGraphic" in2="BackgroundImageFix" result="shape"/>
<feGaussianBlur stdDeviation="15" result="effect1_foregroundBlur_449_19885"/>
</filter>
<filter id="filter2_f_449_19885" x="-76.7344" y="-0.751221" width="166.734" height="83.667" filterUnits="userSpaceOnUse" color-interpolation-filters="sRGB">
<feFlood flood-opacity="0" result="BackgroundImageFix"/>
<feBlend mode="normal" in="SourceGraphic" in2="BackgroundImageFix" result="shape"/>
<feGaussianBlur stdDeviation="5" result="effect1_foregroundBlur_449_19885"/>
</filter>
</defs>
</svg>
