<svg width="52" height="51" viewBox="0 0 52 51" fill="none" xmlns="http://www.w3.org/2000/svg">
<path d="M32.4399 21.46V18.61C32.4399 16.796 31.7192 15.0562 30.4365 13.7734C29.1537 12.4907 27.414 11.77 25.5999 11.77C23.7849 11.77 22.0441 12.4904 20.7597 13.7728C19.4754 15.0553 18.7526 16.795 18.7499 18.61V21.46H15.6299V39.2H35.5699V21.46H32.4399ZM22.7499 18.61C22.7542 17.8585 23.0563 17.1393 23.5899 16.61C24.1214 16.081 24.84 15.7828 25.5899 15.78C26.3398 15.7828 27.0584 16.081 27.5899 16.61C28.1171 17.1428 28.415 17.8606 28.4199 18.61V21.46H22.7299L22.7499 18.61ZM19.6299 25.46H31.5699V35.2H19.6299V25.46Z" fill="#EB5050"/>
<path d="M3 18.47V3H18.47V0H0V18.47H3Z" fill="#B2C5D1"/>
<path d="M32.73 3H48.2V18.47H51.2V0H32.73V3Z" fill="#B2C5D1"/>
<path d="M48.2 32.5V47.97H32.73V50.97H51.2V32.5H48.2Z" fill="#B2C5D1"/>
<path d="M18.47 47.97H3V32.5H0V50.97H18.47V47.97Z" fill="#B2C5D1"/>
</svg>
