<svg enable-background="new 0 0 614 346" viewBox="0 0 614 346" xmlns="http://www.w3.org/2000/svg"><path clip-rule="evenodd" d="m152.5 246.7-106.7 18.9 38.1-114 65.6 91.2c1.9 2.5 4.7 4.2 7.8 4.7l51.4 7.5c1.7.3 3.1-.3 4.4-1.4l10.8-10.3-9.7-18.4 27.8 2.8-54.2-53.1-1.7-22.5c-.3-2.2-.8-4.4-1.9-6.4l-12.8-20.9c-1.4-2.5-1.7-5.3-1.4-8.1l7.2-38.9-46.1 20.3-17.8-35.9-113.3 122.8v-185h283.4v253.7l-141.7 92.3zm-68.6-95.1 39.2-21.4-13.9-54.2zm69.3 20.7-24.9-17.8 27.5 1c1 0 1.9.5 2.8 1.5l9.3 11.2-11.7 4.6c-1.1.3-2 .2-3-.5zm263-19.6 19.4 29v-.2h23.4l-22.1-32.5c11.4-4.3 19.4-13.4 19.4-28v-.2c0-18.7-12.8-29.9-34.2-29.9h-41.5v90.7h19.8v-29h15.8zm4.1-43.8c9.8 0 15.7 4.6 15.7 13v.2c0 7.5-5.5 12.8-15.3 12.8h-20.3v-26zm62.7 72.7v-90.7h19.8v90.7zm86.6-31 20.3 31h23.3l-31.7-46.3 30.3-44.2h-22.6l-19.2 29.4-18.9-29.4h-23.3l30.3 44.5-31.7 46h22.6z" fill="#fff" fill-rule="evenodd"/></svg>