<svg width="53" height="56" viewBox="0 0 53 56" fill="none" xmlns="http://www.w3.org/2000/svg">
<path d="M43.6697 4.77002L21.8397 0L0.00976566 4.77002V27.62C0.00956423 31.1908 0.832176 34.7137 2.41382 37.9151C3.99546 41.1165 6.29358 43.9105 9.12976 46.08L21.8397 55.81L25.4897 53.01L27.7897 51.25L25.9697 48.87L23.6697 50.63L21.8397 52.03L10.9597 43.7C8.48551 41.8125 6.48014 39.3797 5.09955 36.5908C3.71895 33.8018 3.00039 30.7319 2.99976 27.62V7.19L21.8297 3.07001L40.6597 7.19V15.28H43.6597L43.6697 4.77002Z" fill="#B2C5D1"/>
<path d="M49.0004 29.22V26.3801C49.0004 24.566 48.2798 22.8262 46.997 21.5435C45.7143 20.2607 43.9745 19.54 42.1604 19.54C40.3454 19.54 38.6046 20.2604 37.3203 21.5428C36.0359 22.8253 35.3131 24.5651 35.3104 26.3801V29.22H32.1904V46.9601H52.1304V29.22H49.0004ZM39.3104 26.3801C39.3115 26.0078 39.3862 25.6393 39.5304 25.2961C39.6746 24.9528 39.8853 24.6415 40.1504 24.3801C40.4117 24.1154 40.7231 23.9057 41.0666 23.7631C41.41 23.6206 41.7786 23.5481 42.1504 23.55C42.5221 23.5492 42.8903 23.6222 43.2336 23.7646C43.5769 23.9071 43.8885 24.1163 44.1504 24.3801C44.6794 24.9116 44.9776 25.6302 44.9804 26.3801V29.22H39.2904L39.3104 26.3801ZM36.1904 33.22H48.1304V42.9601H36.1904V33.22Z" fill="#EB5050"/>
</svg>
