<svg id="Calque_1" data-name="Calque 1" xmlns="http://www.w3.org/2000/svg" viewBox="0 0 200 80"><defs><style>.cls-1,.cls-2{fill:#eb5050;}.cls-2{fill-rule:evenodd;}</style></defs><path class="cls-1" d="M82.1,35.78a6.68,6.68,0,0,0,.25,2,12.12,12.12,0,0,0,.72,1.62.92.92,0,0,1,.16.52.88.88,0,0,1-.43.68l-1.43.94a.93.93,0,0,1-1.27-.11,7.19,7.19,0,0,1-.82-1.06c-.23-.38-.45-.81-.7-1.33a8.43,8.43,0,0,1-6.68,3.11,6.24,6.24,0,0,1-4.54-1.62,5.72,5.72,0,0,1-1.68-4.32,5.79,5.79,0,0,1,2.06-4.64,8.33,8.33,0,0,1,5.57-1.75,17.13,17.13,0,0,1,2.41.18c.84.11,1.7.29,2.61.49V28.85a5,5,0,0,0-1.07-3.6,5.25,5.25,0,0,0-3.7-1,10.09,10.09,0,0,0-2.46.3,18.78,18.78,0,0,0-2.45.76,5.18,5.18,0,0,1-.79.29,1.28,1.28,0,0,1-.37.07c-.31,0-.47-.22-.47-.7v-1.1a1.37,1.37,0,0,1,.16-.79,1.73,1.73,0,0,1,.63-.47,13.57,13.57,0,0,1,2.86-1,14.09,14.09,0,0,1,3.55-.43c2.7,0,4.67.61,6,1.82s1.88,3.06,1.88,5.54v7.29ZM72.88,39.2a7.42,7.42,0,0,0,2.34-.4,5.11,5.11,0,0,0,2.15-1.44,3.56,3.56,0,0,0,.78-1.44,8.41,8.41,0,0,0,.22-2V33a18.49,18.49,0,0,0-2.09-.38,17.18,17.18,0,0,0-2.13-.14,5.28,5.28,0,0,0-3.39.91A3.1,3.1,0,0,0,69.65,36a3.12,3.12,0,0,0,.84,2.39A3.19,3.19,0,0,0,72.88,39.2Zm18.23,2.43a1.31,1.31,0,0,1-.86-.22,1.9,1.9,0,0,1-.48-.88l-5.33-17.4a3.79,3.79,0,0,1-.21-.9.49.49,0,0,1,.55-.56H87a1.27,1.27,0,0,1,.89.23,1.78,1.78,0,0,1,.45.87l3.82,14.9,3.54-14.9a1.52,1.52,0,0,1,.43-.87,1.53,1.53,0,0,1,.91-.23h1.82a1.36,1.36,0,0,1,.91.23,1.5,1.5,0,0,1,.43.87l3.59,15.08,3.93-15.08a1.8,1.8,0,0,1,.45-.87,1.46,1.46,0,0,1,.89-.23h2.11a.5.5,0,0,1,.57.56,2.39,2.39,0,0,1,0,.36,3,3,0,0,1-.16.57l-5.47,17.39a1.8,1.8,0,0,1-.48.88,1.5,1.5,0,0,1-.86.22h-2a1.34,1.34,0,0,1-.9-.22,1.6,1.6,0,0,1-.44-.9L97.9,26l-3.49,14.5a1.83,1.83,0,0,1-.43.9,1.49,1.49,0,0,1-.91.22Zm29.19.61a15.22,15.22,0,0,1-3.5-.41,10.21,10.21,0,0,1-2.61-.9,1.67,1.67,0,0,1-.71-.63,1.55,1.55,0,0,1-.13-.63V38.53c0-.48.18-.7.52-.7a1.18,1.18,0,0,1,.41.07c.14,0,.34.13.57.22a12.17,12.17,0,0,0,2.5.79,13.66,13.66,0,0,0,2.7.27,6.2,6.2,0,0,0,3.31-.74,2.42,2.42,0,0,0,1.19-2.14,2.2,2.2,0,0,0-.62-1.58,5.82,5.82,0,0,0-2.29-1.17l-3.3-1a6.93,6.93,0,0,1-3.63-2.3A5.31,5.31,0,0,1,113.58,27a5,5,0,0,1,.61-2.5,5.75,5.75,0,0,1,1.63-1.84,7.3,7.3,0,0,1,2.37-1.17,9.93,9.93,0,0,1,2.86-.38,11.07,11.07,0,0,1,1.52.09c.52.06,1,.15,1.48.24s.88.23,1.29.36a4.68,4.68,0,0,1,1,.41,2,2,0,0,1,.69.56,1.25,1.25,0,0,1,.2.74v1.06c0,.47-.18.72-.52.72a2.43,2.43,0,0,1-.87-.27,10.51,10.51,0,0,0-4.36-.88,6,6,0,0,0-3,.63,2.18,2.18,0,0,0-1.06,2,2.07,2.07,0,0,0,.68,1.59,6.65,6.65,0,0,0,2.5,1.24l3.22,1a6.91,6.91,0,0,1,3.52,2.16,5.13,5.13,0,0,1,1,3.16,5.73,5.73,0,0,1-.6,2.61,6,6,0,0,1-1.65,2,7.64,7.64,0,0,1-2.52,1.26A11.1,11.1,0,0,1,120.3,42.24Z"/><path class="cls-2" d="M124.59,53.18c-7.47,5.47-18.33,8.37-27.66,8.37A50.36,50.36,0,0,1,63.15,48.79c-.7-.63-.06-1.49.78-1a68.63,68.63,0,0,0,33.79,8.89,68,68,0,0,0,25.78-5.22C124.75,50.9,125.82,52.28,124.59,53.18Z"/><path class="cls-2" d="M127.7,49.67c-1-1.22-6.31-.59-8.74-.3-.73.09-.84-.54-.18-1,4.27-3,11.28-2.12,12.1-1.12s-.23,8-4.22,11.29c-.62.52-1.21.25-.93-.43C126.63,55.88,128.66,50.86,127.7,49.67Z"/></svg>