<svg width="39" height="44" viewBox="0 0 39 44" fill="none" xmlns="http://www.w3.org/2000/svg">
<path d="M33.4211 4.88754C33.4189 4.61767 33.3508 4.35251 33.2228 4.11542C33.008 3.74281 32.7004 3.43305 32.3304 3.21679C31.5883 2.78928 30.7892 2.471 29.9575 2.2716C28.1544 1.81286 26.3175 1.50125 24.4647 1.33974C22.2967 1.12008 19.8378 1.00026 17.1939 1.00026C13.5294 0.960207 9.86864 1.24754 6.25459 1.85891C5.06258 2.05796 3.89641 2.39062 2.77782 2.8507C2.35618 3.02576 1.96553 3.26856 1.6211 3.5696C1.45046 3.72783 1.30548 3.912 1.19145 4.11542C1.06343 4.35251 0.995332 4.61767 0.993164 4.88754V37.9097C0.995332 38.1795 1.06343 38.4447 1.19145 38.6818C1.4062 39.0544 1.71378 39.3642 2.08378 39.5804C2.82353 40.008 3.62045 40.3263 4.45011 40.5256C6.25478 40.9768 8.09106 41.2883 9.94289 41.4575C12.1109 41.6772 14.5698 41.797 17.2137 41.797C18.7869 41.797 20.3071 41.7504 21.7415 41.6705L21.6291 39.6736C20.2344 39.7601 18.7472 39.8001 17.2137 39.8001C13.6712 39.8383 10.1323 39.5621 6.63797 38.9747C5.59709 38.8012 4.57773 38.5155 3.59743 38.1227C3.38007 38.0328 3.17556 37.9142 2.98933 37.7699V31.5329C3.47014 31.7293 3.96239 31.896 4.46333 32.0321C6.26758 32.4839 8.10407 32.7933 9.95611 32.9574C12.1241 33.177 14.583 33.3035 17.2269 33.3035C18.9653 33.3035 20.6376 33.2502 22.2042 33.1437L22.0786 31.1468C20.5583 31.2467 18.9257 31.2999 17.2269 31.2999C13.6842 31.3363 10.1453 31.0579 6.65119 30.4679C5.60998 30.2991 4.59034 30.0157 3.61066 29.6225C3.39135 29.5338 3.1864 29.4126 3.00255 29.2631V23.3522C3.48356 23.5463 3.97579 23.7108 4.47654 23.8448C6.27987 24.3025 8.11666 24.6141 9.96933 24.7767C12.1374 24.9964 14.5962 25.1162 17.2402 25.1162C20.9046 25.1562 24.5654 24.8689 28.1794 24.2575C29.3713 24.0576 30.5373 23.7249 31.6562 23.2657C32.077 23.089 32.4674 22.8464 32.813 22.5468C32.9836 22.3886 33.1286 22.2044 33.2426 22.001C33.3714 21.7642 33.4395 21.4988 33.4409 21.2289V5.04066C33.4012 4.98741 33.4211 4.94079 33.4211 4.88754ZM27.7696 3.82254C28.8105 3.9961 29.8299 4.28172 30.8102 4.67453C30.9546 4.73645 31.0938 4.80991 31.2266 4.8942L31.134 4.94747C30.5155 5.24216 29.8658 5.46546 29.1974 5.6131C25.2598 6.44187 21.2424 6.82364 17.2203 6.75131C13.6776 6.78743 10.1387 6.50901 6.64457 5.91927C5.60405 5.74736 4.58476 5.464 3.60405 5.07394C3.46394 5.01 3.32715 4.93891 3.19423 4.86093L3.29999 4.79434C3.91758 4.49718 4.56756 4.27379 5.23668 4.12871C9.16878 3.29311 13.1826 2.91127 17.2005 2.9905C20.7408 2.95254 24.2775 3.22873 27.7696 3.81588V3.82254ZM2.98272 6.99097C3.47096 7.1935 3.97225 7.36252 4.48316 7.49686C6.28625 7.9556 8.12312 8.26721 9.97594 8.42872C12.144 8.64838 14.6028 8.77487 17.2468 8.77487C20.9113 8.80973 24.5718 8.52019 28.1861 7.90955C29.2981 7.71474 30.3892 7.41382 31.4447 7.01092V12.9151C31.3534 12.9978 31.251 13.0672 31.1407 13.1214C30.524 13.4209 29.8738 13.6444 29.204 13.7871C26.56 14.4527 22.1711 14.9253 17.2269 14.9253C13.6841 14.9651 10.1449 14.6867 6.65119 14.0933C5.60998 13.9245 4.59034 13.641 3.61066 13.2479C3.39135 13.1592 3.1864 13.038 3.00255 12.8885L2.98272 6.99097ZM29.1775 21.9877C25.2407 22.8209 21.2225 23.2006 17.2005 23.1193C13.6579 23.1608 10.1187 22.8846 6.62474 22.2939C5.58316 22.1236 4.56347 21.8378 3.58422 21.4419C3.36433 21.3573 3.1591 21.2382 2.97612 21.0891V15.1716C3.45693 15.368 3.94917 15.5347 4.45011 15.6708C6.25436 16.1226 8.09086 16.432 9.94289 16.5961C12.1109 16.8157 14.5698 16.9422 17.2137 16.9422C20.8784 16.9804 24.5392 16.6908 28.153 16.0769C29.2818 15.8867 30.389 15.5834 31.4579 15.1716V21.1224C31.3634 21.2009 31.2616 21.27 31.1539 21.3287C30.5229 21.6254 29.8596 21.8466 29.1775 21.9877Z" fill="#99B7D1"/>
<path d="M36.9315 32.1916V30.2946C36.9315 29.0871 36.4551 27.929 35.6073 27.0751C34.7594 26.2213 33.6094 25.7416 32.4103 25.7416C31.2106 25.7416 30.06 26.2211 29.2111 27.0748C28.3621 27.9284 27.8843 29.0865 27.8826 30.2946V32.1916H25.8203V43.9933H39.0003V32.1916H36.9315ZM30.5265 30.2946C30.5272 30.0468 30.5766 29.8015 30.6719 29.573C30.7672 29.3445 30.9065 29.1373 31.0817 28.9633C31.2549 28.7878 31.4608 28.6485 31.6878 28.5537C31.9147 28.4589 32.158 28.4103 32.4037 28.4108C32.6494 28.4103 32.8927 28.4589 33.1197 28.5537C33.3466 28.6485 33.5526 28.7878 33.7257 28.9633C34.0754 29.3171 34.2725 29.7954 34.2743 30.2946V32.1916H30.5265V30.2946ZM28.4643 34.8542H36.3564V41.3308H28.4643V34.8542Z" fill="#EB5050"/>
</svg>
