<svg width="96" height="108" viewBox="0 0 96 108" fill="none" xmlns="http://www.w3.org/2000/svg">
<path d="M0 0V79.8998L47.7076 107.2L95.3333 79.8998V0L47.7076 0.00019455L0 0Z" fill="#07162F"/>
<mask id="mask0_449_19900" style="mask-type:alpha" maskUnits="userSpaceOnUse" x="0" y="1" width="96" height="107">
<path d="M0 25.3091V79.9271L47.7076 107.236L95.3333 79.9271V25.3091L47.7076 1L0 25.3091Z" fill="#07162F"/>
</mask>
<g mask="url(#mask0_449_19900)">
<g filter="url(#filter0_f_449_19900)">
<path d="M67.3121 54.9293C29.9732 62.8738 1.43992 41.8541 -3.19434 34.0752L0.281349 25.6342L-28.0212 9.24878C-45.2342 24.4756 -76.4823 57.6106 -63.7712 68.3356C-47.8823 81.7418 31.5626 66.846 84.6911 64.3634C127.194 62.3773 157.018 117.657 176.548 137.849L198.892 28.1168C170.59 33.7441 104.651 46.9849 67.3121 54.9293Z" fill="#EB5050"/>
</g>
<g filter="url(#filter1_f_449_19900)">
<path d="M67.3121 54.9293C29.9732 62.8738 1.43992 41.8541 -3.19434 34.0752L0.281349 25.6342L-28.0212 9.24878C-45.2342 24.4756 -76.4823 57.6106 -63.7712 68.3356C-47.8823 81.7418 31.5626 66.846 84.6911 64.3634C127.194 62.3773 157.018 117.657 176.548 137.849L198.892 28.1168C170.59 33.7441 104.651 46.9849 67.3121 54.9293Z" fill="#EB5050"/>
</g>
<g filter="url(#filter2_f_449_19900)">
<path d="M-3.19434 34.0752C0.227982 39.8198 23.6033 56.6414 50.6331 61.8472C60.7955 60.6151 70.7272 59.6468 80 59.2135V62C70.2353 64.0776 60.205 63.6908 50.6331 61.8472C2.57021 67.6745 -50.6555 79.402 -63.7712 68.3356C-76.4823 57.6106 -45.2342 24.4756 -28.0212 9.24878L0.281349 25.6342L-3.19434 34.0752Z" fill="white" fill-opacity="0.2"/>
</g>
</g>
<path d="M73.999 46.9826L70.3322 41.762V32H54.8036V41.762L51.1367 46.9826H73.999ZM55.5486 44.6776L56.538 43.2713H68.5628L69.5524 44.6776H55.5486ZM57.0851 34.305H68.004V40.955H57.1317L57.0851 34.305Z" fill="white"/>
<path d="M40.2421 32H24.6668V41.762L21 46.9826H43.9089L40.2421 41.762V32ZM26.995 34.305H37.9139V40.955H26.995V34.305ZM25.4468 44.6776L26.4362 43.2713H38.5076L39.4971 44.6776H25.4468Z" fill="white"/>
<path d="M58.9478 75.0002L55.2809 69.779V60.0176H39.6707V69.7677L36.0039 75.0002H58.9478ZM40.4972 72.6951L41.4868 71.2888H53.5115L54.501 72.6951H40.4972ZM42.0455 62.3226H52.9528V68.9838H41.9989L42.0455 62.3226Z" fill="white"/>
<path d="M63.7083 48.1924H61.3802V51.0624H51.567C51.3216 50.1791 50.7901 49.4 50.0541 48.8447C49.3181 48.2893 48.4182 47.9882 47.4928 47.9882C46.5674 47.9882 45.6676 48.2893 44.9316 48.8447C44.1956 49.4 43.664 50.1791 43.4186 51.0624H33.6172V48.1924H31.2891V53.3675H43.4186C43.6141 54.0467 43.9787 54.6665 44.479 55.1699C44.9794 55.6734 45.5995 56.0442 46.2823 56.2487V58.4845H48.6104V56.2831C49.3122 56.092 49.9527 55.726 50.4705 55.2195C50.9882 54.7129 51.3657 54.0831 51.567 53.3905H63.7083V48.1924ZM47.5044 54.1165C47.1213 54.1188 46.746 54.0084 46.4265 53.7991C46.1069 53.5897 45.8576 53.2909 45.7099 52.9409C45.5622 52.5908 45.5229 52.205 45.5971 51.8328C45.6713 51.4607 45.8556 51.1191 46.1265 50.8509C46.3975 50.5826 46.7429 50.3998 47.1188 50.3264C47.4947 50.2529 47.8841 50.2921 48.2377 50.4384C48.5912 50.5846 48.8929 50.8316 49.1043 51.148C49.3158 51.4644 49.4275 51.8356 49.4252 52.215C49.4252 52.4647 49.3755 52.7119 49.279 52.9426C49.1824 53.1733 49.041 53.3828 48.8626 53.5594C48.6843 53.7359 48.4726 53.8763 48.2395 53.9718C48.0065 54.0674 47.7567 54.1165 47.5044 54.1165Z" fill="#EB5050"/>
<defs>
<filter id="filter0_f_449_19900" x="-106.734" y="-30.7512" width="345.626" height="208.601" filterUnits="userSpaceOnUse" color-interpolation-filters="sRGB">
<feFlood flood-opacity="0" result="BackgroundImageFix"/>
<feBlend mode="normal" in="SourceGraphic" in2="BackgroundImageFix" result="shape"/>
<feGaussianBlur stdDeviation="20" result="effect1_foregroundBlur_449_19900"/>
</filter>
<filter id="filter1_f_449_19900" x="-96.7344" y="-20.7512" width="325.626" height="188.601" filterUnits="userSpaceOnUse" color-interpolation-filters="sRGB">
<feFlood flood-opacity="0" result="BackgroundImageFix"/>
<feBlend mode="normal" in="SourceGraphic" in2="BackgroundImageFix" result="shape"/>
<feGaussianBlur stdDeviation="15" result="effect1_foregroundBlur_449_19900"/>
</filter>
<filter id="filter2_f_449_19900" x="-76.7344" y="-0.751221" width="166.734" height="83.667" filterUnits="userSpaceOnUse" color-interpolation-filters="sRGB">
<feFlood flood-opacity="0" result="BackgroundImageFix"/>
<feBlend mode="normal" in="SourceGraphic" in2="BackgroundImageFix" result="shape"/>
<feGaussianBlur stdDeviation="5" result="effect1_foregroundBlur_449_19900"/>
</filter>
</defs>
</svg>
