<svg width="52" height="51" viewBox="0 0 52 51" fill="none" xmlns="http://www.w3.org/2000/svg">
<path d="M11.5918 40.5564V39.5532H2.01714V2.00642H10.5833V40.5564H11.5918V39.5532V40.5564H12.6004V0H0V41.5597H12.6004V40.5564H11.5918Z" fill="#99B7D1"/>
<path d="M25.5303 40.5566V39.5534H15.9556V25.3145H24.5217V40.5566H25.5303V39.5534V40.5566H26.5389V23.3081H13.9385V41.5598H26.5389V40.5566H25.5303Z" fill="#99B7D1"/>
<path d="M40.4773 29.5613V12.8344H27.877V41.5597H30.9968V39.5532H29.8941V14.8408H38.4602V29.5613H40.4773Z" fill="#99B7D1"/>
<path d="M46.3406 39.8341H44.9959C44.9941 40.8197 44.6489 41.7741 44.019 42.5349C43.3891 43.2956 42.5135 43.8156 41.5414 44.0063C40.5693 44.1969 39.5608 44.0465 38.6878 43.5805C37.8147 43.1145 37.131 42.3619 36.7533 41.4508C36.3755 40.5397 36.327 39.5265 36.616 38.5838C36.905 37.6411 37.5137 36.8272 38.3383 36.2808C39.1629 35.7344 40.1524 35.4893 41.1383 35.5872C42.1242 35.6852 43.0455 36.1201 43.7452 36.8178C44.143 37.214 44.4583 37.6843 44.6729 38.2019C44.8875 38.7195 44.9973 39.2742 44.9959 39.8341H47.6854C47.6854 38.4624 47.2765 37.1215 46.5103 35.981C45.7441 34.8404 44.6552 33.9515 43.3811 33.4265C42.107 32.9016 40.7051 32.7643 39.3525 33.0319C38 33.2995 36.7576 33.96 35.7825 34.93C34.8073 35.8999 34.1433 37.1357 33.8742 38.4811C33.6052 39.8264 33.7433 41.2209 34.271 42.4882C34.7987 43.7555 35.6924 44.8387 36.8391 45.6008C37.9857 46.3629 39.3338 46.7697 40.7128 46.7697C42.5615 46.7679 44.334 46.0366 45.6412 44.7363C46.9484 43.436 47.6836 41.673 47.6854 39.8341H46.3406Z" fill="#EB5050"/>
<path d="M44.7809 45.6996L48.7076 49.6054C48.8321 49.731 48.9802 49.831 49.1436 49.8996C49.3069 49.9683 49.4822 50.0042 49.6596 50.0055C49.8369 50.0067 50.0127 49.9732 50.177 49.9069C50.3413 49.8405 50.4908 49.7426 50.6171 49.6188C50.7434 49.495 50.8439 49.3476 50.9129 49.1851C50.9819 49.0226 51.0181 48.8483 51.0193 48.6719C51.0206 48.4955 50.9869 48.3206 50.9202 48.1572C50.8535 47.9937 50.7551 47.845 50.6306 47.7194L46.6971 43.8069C46.4409 43.5767 46.1056 43.4535 45.7605 43.4625C45.4154 43.4716 45.087 43.6123 44.8434 43.8555C44.5997 44.0987 44.4594 44.4258 44.4515 44.7691C44.4436 45.1124 44.5688 45.4456 44.801 45.6996" fill="#EB5050"/>
</svg>
